<?xml version="1.0" encoding="UTF-8"?>
<svg xmlns="http://www.w3.org/2000/svg" viewBox="0 0 2048 2048" data-mascot-bounds="431 459 1191 1132" role="img" aria-labelledby="mascot-title mascot-description">
  <title id="mascot-title">Debrute complete mascot</title>
  <desc id="mascot-description">A stubborn but friendly square-headed character with asymmetric ears, cream features, visible teeth, an orange cap, and a tiny orange body.</desc>
  <defs>
    <pattern id="paperTexture" width="72" height="72" patternUnits="userSpaceOnUse">
      <rect width="72" height="72" fill="#F9E8D4"/>
      <path d="M7 12h10v2H7zm30 8h18v1H37zM17 48h13v2H17zm34 11h8v1h-8z" fill="#D7A17B" opacity="0.08"/>
      <path d="M25 5h3v3h-3zM62 30h2v2h-2zM5 65h2v2H5zM42 42h3v2h-3z" fill="#FFF0DC" opacity="0.42"/>
    </pattern>
    <pattern id="inkTexture" width="58" height="58" patternUnits="userSpaceOnUse">
      <rect width="58" height="58" fill="#282825"/>
      <path d="M4 9h13v2H4zm25 8h20v1H29zM11 36h9v2h-9zm27 12h15v2H38z" fill="#FFF0DC" opacity="0.055"/>
      <path d="M21 4h4v3h-4zM51 28h3v3h-3zM3 51h3v2H3zM31 32h2v2h-2z" fill="#11110F" opacity="0.48"/>
    </pattern>
    <pattern id="clayTexture" width="62" height="62" patternUnits="userSpaceOnUse">
      <rect width="62" height="62" fill="#D76522"/>
      <path d="M6 13h16v2H6zm28 9h18v2H34zM14 45h11v2H14zm30 8h12v1H44z" fill="#FFF0DC" opacity="0.08"/>
      <path d="M27 5h3v3h-3zM55 35h3v2h-3zM5 56h2v2H5zM37 39h3v2h-3z" fill="#282825" opacity="0.11"/>
    </pattern>
    <pattern id="creamTexture" width="54" height="54" patternUnits="userSpaceOnUse">
      <rect width="54" height="54" fill="#FFF0DC"/>
      <path d="M6 8h11v1H6zm20 15h17v2H26zM9 39h8v2H9zm25 8h12v1H34z" fill="#D7A17B" opacity="0.12"/>
      <path d="M21 4h2v2h-2zM48 31h2v3h-2zM4 49h3v2H4z" fill="#282825" opacity="0.10"/>
    </pattern>
  </defs>
  <g id="paper">
    <rect width="2048" height="2048" fill="url(#paperTexture)"/>
  </g>
  <g id="mascot">
    <path d="M 837.887 459.447 C 837.326 460.007, 798.462 461.199, 792 460.854 C 786.015 460.535, 778.822 460.653, 771.500 461.190 C 768.200 461.432, 764.755 461.181, 763.844 460.633 L 762.187 459.636 756.844 460.769 C 753.905 461.392, 750.150 461.811, 748.500 461.701 L 745.500 461.500 745.338 466 C 745.249 468.475, 744.692 472.525, 744.099 475 L 743.023 479.500 743.546 504.629 C 743.833 518.450, 744.281 530.825, 744.542 532.129 C 744.802 533.433, 745.267 544.400, 745.575 556.500 C 745.882 568.600, 746.305 580.750, 746.514 583.500 C 748.002 603.060, 749.026 613.146, 749.919 617.020 C 750.487 619.484, 750.962 623.562, 750.976 626.083 C 750.989 628.604, 751.297 630.964, 751.660 631.327 C 752.023 631.690, 752.949 631.090, 753.717 629.994 L 755.113 628 759.057 628 C 763.138 628, 763.861 628.739, 761.800 630.800 L 760.600 632 763.165 632 C 764.576 632, 766.874 631.100, 768.273 630 C 771.366 627.567, 772.615 627.490, 773.826 629.654 L 774.752 631.309 776.948 629.263 L 779.144 627.218 785.503 626.537 L 791.862 625.856 793.931 626.963 C 795.069 627.572, 796 628.479, 796 628.978 C 796 629.478, 797.686 629.779, 799.747 629.647 L 803.494 629.407 803.497 627.454 L 803.500 625.500 819.429 625.465 L 835.357 625.430 837.929 627.519 L 840.500 629.609 843.418 629.054 C 846.222 628.522, 848.374 626, 846.024 626 C 845.396 626, 845.092 625.660, 845.349 625.244 C 845.606 624.829, 849.570 624.378, 854.158 624.242 L 862.500 623.996 860.139 625.998 L 857.778 628 862.273 628 L 866.767 628 867.253 626.142 L 867.739 624.283 870.609 623.734 C 872.187 623.433, 874.241 623.594, 875.174 624.093 C 876.106 624.592, 879.733 625, 883.234 625 L 889.600 625 890.800 623.800 L 892 622.600 892 624.300 C 892 626.111, 893.510 626.602, 894.442 625.094 C 894.749 624.596, 901.414 624.122, 909.251 624.041 C 917.088 623.959, 928.560 623.785, 934.743 623.653 L 945.987 623.413 947.193 622.207 C 948.908 620.492, 951 620.713, 951 622.608 L 951 624.217 953.671 623.546 C 955.140 623.178, 957.451 622.004, 958.806 620.938 C 960.161 619.872, 962.282 619, 963.518 619 L 965.767 619 966.316 621.101 L 966.865 623.201 967.933 622.542 C 968.520 622.179, 969 621.234, 969 620.441 C 969 618.556, 971.416 618.592, 973 620.500 L 974.245 622 973.122 622 C 972.505 622, 972 622.439, 972 622.975 L 972 623.950 974.535 622.987 C 975.929 622.457, 977.391 622.071, 977.785 622.130 C 978.178 622.189, 979.920 622.184, 981.656 622.118 L 984.813 622 984.319 620.113 L 983.826 618.227 988.039 617.825 L 992.252 617.423 993.204 620.155 L 994.156 622.886 996.450 621.841 C 997.711 621.266, 998.689 620.054, 998.622 619.148 L 998.500 617.501 1000.602 617.200 L 1002.704 616.900 1004.415 619.511 L 1006.126 622.123 1008.313 621.811 L 1010.500 621.500 1010.818 619.261 L 1011.136 617.021 1018.568 617.163 L 1026 617.304 1026 619.652 C 1026 622.265, 1027.475 622.812, 1028.353 620.524 L 1028.919 619.048 1035.459 619.241 L 1042 619.435 1042 620.755 L 1042 622.074 1048.660 621.627 L 1055.320 621.180 1056.210 619.590 C 1057.196 617.828, 1059.557 617.475, 1060.471 618.953 C 1060.794 619.476, 1059.808 620.583, 1058.280 621.412 L 1055.500 622.920 1057.050 622.960 C 1057.902 622.982, 1059.092 622.508, 1059.693 621.907 L 1060.785 620.815 1062.761 621.872 C 1063.848 622.454, 1064.932 622.734, 1065.171 622.496 C 1065.410 622.257, 1067.044 621.952, 1068.802 621.818 L 1072 621.575 1072.032 620.037 L 1072.064 618.500 1073.392 620.250 C 1075.025 622.401, 1076.627 622.443, 1080.472 620.438 L 1083.445 618.888 1084.621 620.497 L 1085.798 622.106 1086.275 620.803 L 1086.752 619.500 1089.899 621.217 L 1093.046 622.933 1095.734 621.911 C 1097.212 621.349, 1099.426 621.141, 1100.654 621.449 C 1101.881 621.757, 1104.040 621.483, 1105.451 620.840 L 1108.017 619.671 1110.259 620.869 C 1112.511 622.073, 1119.619 622.411, 1130.192 621.819 L 1135.884 621.500 1136.758 618 C 1137.686 614.290, 1137.670 610.664, 1136.537 566.500 C 1135.609 530.313, 1135.540 529.140, 1134.257 527.857 C 1133.095 526.695, 1125.708 524.974, 1120 524.536 C 1102.360 523.181, 1077.101 522.654, 1039.500 522.855 C 1034.550 522.882, 1023.862 522.933, 1015.750 522.968 L 1001 523.033 1001 521.163 C 1001 520.135, 999.924 516.328, 998.610 512.704 C 997.295 509.079, 996.444 505.889, 996.719 505.614 C 996.993 505.340, 996.332 503.852, 995.248 502.308 C 994.164 500.763, 992.761 497.925, 992.129 496 C 991.497 494.075, 989.859 490.542, 988.490 488.148 C 987.120 485.754, 986 483.362, 986 482.831 C 986 481.115, 978.645 474.847, 973.237 471.953 C 970.342 470.404, 965.392 468.611, 962.237 467.969 C 959.082 467.327, 955.150 466.207, 953.500 465.480 C 951.850 464.754, 949.375 463.814, 948 463.393 C 945.884 462.745, 886.120 461.852, 857.782 462.045 C 852.987 462.078, 848.262 461.690, 847.282 461.184 C 845.041 460.026, 838.514 458.819, 837.887 459.447 M 927.053 1347.947 L 925.034 1349.966 920.461 1349.340 L 915.888 1348.713 915.345 1350.787 C 915.047 1351.928, 914.172 1353.104, 913.401 1353.399 C 912.631 1353.695, 912 1354.800, 912 1355.854 C 912 1356.908, 910.878 1358.505, 909.506 1359.404 C 908.135 1360.303, 907.106 1361.367, 907.221 1361.769 C 907.336 1362.171, 906.208 1364.404, 904.715 1366.730 C 903.222 1369.057, 902 1371.589, 902 1372.358 C 902 1373.126, 901.325 1374.315, 900.500 1375 C 899.675 1375.685, 899 1376.798, 899 1377.474 C 899 1378.150, 896.939 1381.808, 894.420 1385.602 C 891.901 1389.396, 889.437 1393.513, 888.944 1394.750 C 888.452 1395.987, 887.588 1397, 887.025 1397 C 886.461 1397, 886 1397.876, 886 1398.947 C 886 1400.018, 883.261 1406.118, 879.914 1412.502 C 876.567 1418.887, 874.059 1424.713, 874.342 1425.449 C 874.624 1426.185, 873.778 1427.800, 872.460 1429.037 C 871.143 1430.275, 869.425 1433.360, 868.642 1435.894 C 865.256 1446.856, 864.039 1451.627, 864.152 1453.500 C 864.219 1454.600, 863.504 1457.680, 862.565 1460.345 C 861.625 1463.009, 861.110 1465.443, 861.419 1465.753 C 861.729 1466.063, 861.486 1466.915, 860.878 1467.647 L 859.773 1468.978 860.414 1472.392 L 861.054 1475.805 863.669 1477.519 L 866.283 1479.232 869.979 1478.124 C 872.011 1477.516, 874.492 1476.113, 875.492 1475.009 C 876.492 1473.904, 877.803 1472.987, 878.405 1472.972 C 879.007 1472.957, 880.813 1471.607, 882.417 1469.972 C 884.021 1468.338, 885.885 1467, 886.560 1467 C 887.234 1467, 888.045 1466.325, 888.362 1465.500 C 888.678 1464.675, 889.462 1464, 890.104 1464 C 890.746 1464, 892.251 1462.987, 893.449 1461.750 C 894.647 1460.513, 896.682 1458.825, 897.971 1458 C 899.261 1457.175, 901.751 1455.276, 903.505 1453.781 L 906.694 1451.062 906.290 1455.281 C 906.069 1457.601, 905.013 1463.049, 903.944 1467.387 C 902.875 1471.725, 902 1477.661, 902 1480.578 C 902 1483.495, 901.597 1486.131, 901.103 1486.436 C 900.610 1486.741, 900.177 1489.465, 900.141 1492.490 C 900.105 1495.515, 899.637 1498.809, 899.101 1499.810 L 898.127 1501.631 898.948 1505.065 C 900.192 1510.267, 901.062 1511.963, 903.028 1513.015 L 904.821 1513.974 907.269 1512.704 C 909.977 1511.299, 918.110 1503.281, 922 1498.182 C 923.375 1496.379, 925.683 1493.637, 927.129 1492.087 L 929.759 1489.271 931.379 1492.669 C 932.271 1494.539, 933 1496.926, 933 1497.975 C 933 1499.024, 933.450 1500.160, 934 1500.500 C 934.550 1500.840, 935 1502.385, 935 1503.933 C 935 1507.842, 939.748 1515.954, 942.691 1517.073 C 944.033 1517.583, 946.465 1518, 948.096 1518 L 951.063 1518 951.638 1516.500 C 951.955 1515.675, 952.976 1515, 953.907 1515 C 954.838 1515, 956.089 1514.511, 956.687 1513.913 C 958.494 1512.106, 958.820 1514.182, 957.724 1520.500 C 957.152 1523.800, 956.747 1528.938, 956.825 1531.918 C 956.902 1534.898, 956.600 1537.823, 956.153 1538.418 C 955.706 1539.013, 955.236 1542.425, 955.108 1546 C 954.981 1549.575, 954.792 1554.412, 954.688 1556.749 L 954.500 1560.999 952.500 1561.037 C 943.126 1561.214, 927.512 1562.352, 919 1563.479 C 916.525 1563.807, 912.970 1564.259, 911.099 1564.484 C 904.175 1565.316, 888.492 1569.357, 882.532 1571.844 C 880.350 1572.755, 878.213 1573.556, 877.782 1573.625 C 877.352 1573.694, 876.650 1573.806, 876.223 1573.875 C 875.795 1573.944, 873.995 1575.325, 872.223 1576.944 L 869 1579.887 869 1583.289 L 869 1586.690 871.103 1588.595 L 873.206 1590.500 885.853 1590.424 C 904.104 1590.315, 942.197 1589.179, 951.285 1588.473 L 959.071 1587.868 962.285 1588.921 L 965.500 1589.974 971 1588.965 C 974.025 1588.411, 978.409 1587.684, 980.742 1587.349 L 984.984 1586.742 986.538 1588.031 C 988.787 1589.898, 994.658 1589.380, 997.969 1587.022 L 1000.826 1584.987 1001.507 1580.959 L 1002.187 1576.931 1001.059 1575.571 L 999.931 1574.212 1001.537 1572.606 C 1002.420 1571.722, 1003.044 1569.987, 1002.923 1568.750 C 1002.802 1567.512, 1003.043 1565.711, 1003.459 1564.748 C 1003.875 1563.784, 1003.941 1561.899, 1003.604 1560.559 C 1003.268 1559.219, 1003.371 1557.889, 1003.833 1557.603 C 1004.295 1557.318, 1004.735 1555.431, 1004.811 1553.410 C 1004.887 1551.389, 1005.223 1548.874, 1005.557 1547.820 C 1005.892 1546.766, 1005.623 1545.251, 1004.960 1544.452 L 1003.755 1543 1005.046 1541.444 L 1006.338 1539.888 1006.419 1530.191 L 1006.500 1520.495 1009.687 1517.497 C 1011.440 1515.849, 1014.684 1512.925, 1016.896 1511 C 1019.109 1509.075, 1020.937 1507.046, 1020.959 1506.491 C 1020.982 1505.935, 1022.013 1504.854, 1023.250 1504.088 C 1024.487 1503.321, 1026.475 1502.061, 1027.667 1501.286 L 1029.835 1499.878 1035.417 1505.461 C 1038.488 1508.531, 1041 1511.399, 1041 1511.834 C 1041 1512.268, 1042.394 1513.654, 1044.097 1514.914 L 1047.194 1517.203 1046.679 1519.852 C 1046.395 1521.308, 1046.585 1526.100, 1047.101 1530.500 C 1047.617 1534.900, 1048.714 1545.700, 1049.540 1554.500 C 1050.365 1563.300, 1051.471 1573.180, 1051.998 1576.455 L 1052.955 1582.409 1055.423 1584.878 L 1057.892 1587.347 1064.639 1586.338 L 1071.385 1585.330 1075.933 1586.180 C 1078.434 1586.647, 1081.160 1586.730, 1081.990 1586.364 C 1085.354 1584.881, 1094.630 1584.352, 1101 1585.280 L 1105.500 1585.936 1108.856 1584.855 L 1112.211 1583.775 1114.706 1585.110 L 1117.201 1586.446 1118.715 1584.473 L 1120.230 1582.500 1120.698 1583.750 C 1121.314 1585.392, 1123.469 1585.344, 1124.869 1583.658 L 1125.983 1582.315 1139.198 1582.204 C 1146.466 1582.143, 1154.789 1581.795, 1157.694 1581.433 L 1162.976 1580.773 1162.606 1577.136 C 1162.072 1571.882, 1160.358 1568.133, 1157.117 1565.133 C 1153.404 1561.694, 1144.783 1557.505, 1138.500 1556.087 C 1130.574 1554.298, 1113.057 1553.164, 1106.500 1554.015 C 1103.200 1554.444, 1097.688 1555.088, 1094.250 1555.447 L 1088 1556.099 1088 1550.716 C 1088 1547.756, 1087.730 1545.063, 1087.400 1544.733 C 1087.070 1544.403, 1086.699 1539.292, 1086.577 1533.376 L 1086.353 1522.618 1085.135 1522.212 L 1083.917 1521.806 1085.119 1520.357 C 1085.780 1519.561, 1086.259 1517.266, 1086.183 1515.258 L 1086.046 1511.607 1087.622 1509.866 L 1089.197 1508.125 1091.638 1509.053 C 1092.981 1509.563, 1095.684 1511.540, 1097.646 1513.445 C 1101.250 1516.945, 1108.033 1521, 1110.284 1521 C 1112.058 1521, 1116.392 1516.028, 1117.936 1512.223 L 1119.265 1508.946 1118.552 1501.723 C 1118.161 1497.750, 1117.763 1491.045, 1117.670 1486.823 L 1117.500 1479.146 1119.079 1480.573 C 1119.947 1481.358, 1121.136 1482, 1121.722 1482 C 1122.307 1482, 1123.045 1482.675, 1123.362 1483.500 C 1123.678 1484.325, 1124.796 1485, 1125.846 1485 C 1126.896 1485, 1128.315 1485.675, 1129 1486.500 C 1129.685 1487.325, 1130.610 1488, 1131.057 1488 C 1131.504 1488, 1133.137 1488.523, 1134.685 1489.163 C 1136.233 1489.803, 1138.805 1490.429, 1140.399 1490.554 C 1141.993 1490.679, 1143.703 1491.505, 1144.199 1492.390 C 1144.694 1493.276, 1145.977 1494, 1147.050 1494 C 1148.122 1494, 1149 1494.450, 1149 1495 C 1149 1495.550, 1150.260 1496, 1151.800 1496 C 1153.340 1496, 1155.081 1496.481, 1155.668 1497.068 C 1156.256 1497.656, 1158.480 1497.993, 1160.610 1497.818 L 1164.483 1497.500 1164.829 1495.676 C 1165.020 1494.672, 1164.417 1493.013, 1163.490 1491.989 C 1162.563 1490.964, 1162.067 1489.700, 1162.389 1489.180 C 1162.711 1488.659, 1161.180 1486.493, 1158.988 1484.367 C 1156.795 1482.240, 1155.001 1479.728, 1155.001 1478.784 C 1155 1477.840, 1151.767 1473.867, 1147.815 1469.954 L 1140.630 1462.840 1143.815 1460.348 C 1145.567 1458.977, 1147 1457.243, 1147 1456.494 C 1147 1455.745, 1148.234 1454.990, 1149.741 1454.816 L 1152.483 1454.500 1152.849 1452.571 C 1153.316 1450.112, 1155.416 1448, 1157.393 1448 C 1158.238 1448, 1159.430 1447.066, 1160.041 1445.924 C 1160.651 1444.783, 1163.705 1441.215, 1166.826 1437.996 C 1174.793 1429.778, 1175 1429.469, 1175 1425.787 L 1175 1422.489 1171.500 1419.571 C 1169.575 1417.965, 1168 1416.134, 1168 1415.500 C 1168 1414.867, 1166.875 1413.292, 1165.500 1412 C 1164.125 1410.708, 1163 1409.283, 1163 1408.833 C 1163 1407.574, 1153.746 1395, 1152.819 1395 C 1152.368 1395, 1152 1394.325, 1152 1393.500 C 1152 1392.675, 1151.636 1392, 1151.192 1392 C 1150.747 1392, 1149.060 1390.147, 1147.442 1387.882 C 1144.214 1383.364, 1132.720 1369.552, 1129.824 1366.711 C 1128.821 1365.727, 1128 1364.520, 1128 1364.028 C 1128 1363.537, 1127.143 1362.863, 1126.096 1362.531 C 1125.050 1362.198, 1123.504 1360.474, 1122.661 1358.698 C 1121.819 1356.923, 1119.989 1354.399, 1118.595 1353.089 L 1116.061 1350.709 1110.031 1351.339 L 1104 1351.969 1104 1350.985 C 1104 1350.443, 1104.873 1350, 1105.941 1350 C 1107.009 1350, 1108.160 1349.550, 1108.500 1349 L 1109.118 1348 1102.888 1348 L 1096.657 1348 1094.773 1349.706 L 1092.888 1351.411 1091.161 1350.333 C 1090.211 1349.740, 1087.960 1348.930, 1086.157 1348.535 L 1082.880 1347.815 1078.470 1349.117 L 1074.060 1350.419 1075.280 1351.194 C 1075.951 1351.621, 1073.385 1351.976, 1069.579 1351.985 L 1062.657 1352 1060.847 1350.362 L 1059.038 1348.724 1057.472 1350.023 C 1056.611 1350.738, 1053.340 1351.368, 1050.203 1351.424 L 1044.500 1351.526 1042.660 1350.026 L 1040.819 1348.527 1039.476 1350.363 C 1038.083 1352.268, 1035.446 1351.706, 1036.648 1349.761 L 1037.328 1348.660 1035.747 1349.267 C 1034.877 1349.601, 1033.958 1349.332, 1033.704 1348.670 L 1033.242 1347.466 1028.555 1347.839 L 1023.867 1348.212 1024.402 1349.606 C 1025.106 1351.440, 1024.072 1351.375, 1021.946 1349.452 L 1020.236 1347.903 1012.713 1347.457 L 1005.190 1347.011 1005.712 1349.005 C 1006.360 1351.485, 1004.561 1351.613, 1002.807 1349.212 L 1001.500 1347.424 992.345 1347.159 L 983.190 1346.894 979.473 1348.447 C 975.082 1350.281, 975 1350.292, 975 1349 C 975 1348.450, 975.702 1348, 976.559 1348 C 977.416 1348, 977.865 1347.591, 977.556 1347.090 C 976.856 1345.958, 968.110 1346.012, 967.405 1347.154 C 967.121 1347.613, 965.901 1348.515, 964.694 1349.158 L 962.500 1350.327 963.872 1348.664 C 965.478 1346.718, 965.429 1346.706, 957.141 1346.982 C 953.643 1347.098, 949.270 1347.825, 947.423 1348.597 C 943.233 1350.347, 943 1350.342, 943 1348.500 C 943 1346.543, 941.112 1346.588, 938.891 1348.598 L 937.125 1350.197 932.931 1349.488 L 928.738 1348.780 929.976 1348.015 L 931.214 1347.250 930.143 1346.589 C 929.555 1346.225, 928.164 1346.836, 927.053 1347.947 M 1112.485 1404.500 C 1112.789 1406.700, 1113.231 1411.875, 1113.467 1416 C 1113.703 1420.125, 1114.213 1427.775, 1114.601 1433 C 1114.989 1438.225, 1115.219 1444.412, 1115.113 1446.750 C 1115.007 1449.088, 1115.275 1450.997, 1115.710 1450.993 C 1116.144 1450.989, 1117.550 1449.445, 1118.832 1447.561 C 1120.115 1445.677, 1124.672 1440.410, 1128.959 1435.856 L 1136.753 1427.577 1135.636 1425.788 C 1135.022 1424.805, 1134.006 1424, 1133.378 1424 C 1132.751 1424, 1131.110 1422.537, 1129.733 1420.750 C 1125.948 1415.839, 1119.201 1409, 1118.142 1409 C 1117.625 1409, 1116.017 1407.088, 1114.567 1404.750 L 1111.932 1400.500 1112.485 1404.500 M 1057.714 1405.596 C 1055.632 1406.959, 1054.218 1408.544, 1054.572 1409.117 C 1054.927 1409.691, 1054.268 1410.824, 1053.108 1411.637 L 1051 1413.113 1051 1416.741 C 1051 1421.636, 1054.535 1428.627, 1057.821 1430.234 C 1059.294 1430.954, 1062.768 1431.534, 1065.540 1431.522 L 1070.580 1431.500 1073.622 1429 C 1075.296 1427.625, 1077.190 1425.398, 1077.832 1424.051 C 1079.434 1420.692, 1079.297 1415.474, 1077.517 1412.033 C 1075.600 1408.325, 1067.672 1402.983, 1064.200 1403.059 C 1062.715 1403.091, 1059.796 1404.233, 1057.714 1405.596" stroke="none" fill="url(#clayTexture)" fill-rule="evenodd"/>
    <path d="M 987.250 617.723 C 983.649 618.170, 983.085 619.611, 985.748 621.558 L 987.497 622.836 986.612 623.668 C 986.125 624.126, 985.525 623.938, 985.280 623.250 L 984.833 622 980.617 622 C 978.298 622, 975.912 622.488, 975.315 623.085 C 974.719 623.681, 973.166 623.963, 971.865 623.712 L 969.500 623.254 971.771 622.505 L 974.042 621.756 972.899 620.378 C 971.228 618.365, 969.313 618.694, 968.684 621.101 L 968.135 623.201 967.067 622.542 C 966.480 622.179, 966 621.234, 966 620.441 L 966 619 963.635 619 C 962.334 619, 960.161 619.872, 958.806 620.938 C 957.451 622.004, 955.140 623.178, 953.671 623.546 L 951 624.217 951 622.608 C 951 620.912, 948.501 620.381, 947.574 621.881 C 946.703 623.289, 941.618 623.920, 940.250 622.789 L 939 621.755 939 622.831 L 939 623.907 931.750 623.811 C 913.865 623.577, 894.987 624.211, 894.460 625.066 C 893.513 626.597, 892 626.127, 892 624.300 L 892 622.600 890.800 623.800 L 889.600 625 883 625 C 879.370 625, 875.944 624.544, 875.388 623.988 L 874.375 622.975 871.054 623.639 L 867.733 624.303 867.250 626.152 L 866.767 628 862.161 628 L 857.555 628 859.862 626.384 C 861.130 625.496, 861.793 624.418, 861.334 623.990 C 860.875 623.561, 857.826 623.586, 854.557 624.045 C 851.289 624.504, 848.251 624.655, 847.807 624.381 C 847.363 624.106, 846.502 624.190, 845.893 624.566 L 844.786 625.250 846.021 626.013 C 848.095 627.295, 846.079 629, 842.491 629 L 839.099 629 838.131 627.270 L 837.163 625.540 820.332 625.520 L 803.500 625.500 803.494 627.369 L 803.488 629.237 799.744 629.465 C 797.685 629.590, 796 629.327, 796 628.881 C 796 628.435, 795.043 627.558, 793.873 626.932 L 791.747 625.794 785.490 626.464 L 779.233 627.134 777.158 629.067 C 774.663 631.392, 774 631.483, 774 629.500 C 774 627.573, 771.137 627.566, 769.013 629.488 C 768.109 630.307, 765.823 631.239, 763.934 631.560 L 760.500 632.143 762.234 630.723 C 764.534 628.839, 763.493 628, 758.856 628 L 755.046 628 753.408 630.500 L 751.770 633 749.085 633 C 747.608 633, 745.872 632.472, 745.227 631.827 L 744.054 630.654 741.480 631.827 C 740.064 632.472, 737.802 633, 736.453 633 L 734 633 734 631 L 734 629 732.250 629.070 C 730.083 629.157, 726.028 630.833, 727.750 630.930 C 728.438 630.968, 729 631.675, 729 632.500 L 729 634 726 634 L 723 634 722.930 632.250 L 722.859 630.500 722.109 632.415 L 721.358 634.330 714.537 634.757 L 707.716 635.184 708.326 633.592 L 708.937 632 707.076 632 C 706.052 632, 704.930 632.739, 704.583 633.643 L 703.953 635.286 696.739 634.681 C 692.772 634.349, 689.380 633.639, 689.201 633.104 L 688.877 632.132 675.389 632.064 C 660.340 631.989, 649.737 633.303, 643.598 636.004 C 639.725 637.708, 633 643.124, 633 644.539 C 633 644.898, 632.156 646.386, 631.125 647.846 L 629.249 650.500 629.545 660.194 L 629.841 669.887 628.442 671.049 L 627.042 672.210 628.064 674.120 L 629.086 676.029 628.071 679.704 C 627.513 681.725, 627.302 684.357, 627.603 685.554 L 628.149 687.729 626.462 688.376 L 624.775 689.024 625.661 690.262 C 626.148 690.943, 626.441 695.325, 626.312 700 C 625.855 716.521, 625.976 719.480, 627.194 721.550 C 627.501 722.073, 627.642 724.750, 627.508 727.500 C 627.374 730.250, 627.489 733.756, 627.765 735.290 L 628.266 738.081 629.883 737.807 C 630.772 737.656, 631.513 737.975, 631.530 738.516 C 631.546 739.057, 631.017 739.376, 630.355 739.223 C 629.693 739.071, 628.889 739.371, 628.568 739.890 C 627.741 741.229, 629.998 751.119, 630.990 750.506 C 631.442 750.227, 631.577 749.098, 631.289 747.999 L 630.767 746 632.002 746 L 633.237 746 632.665 756.750 C 632.351 762.663, 631.909 768.737, 631.684 770.250 L 631.275 773 632.388 773 L 633.500 773 633.242 781.250 C 633.100 785.787, 632.977 791.057, 632.969 792.960 C 632.961 794.863, 632.290 797.435, 631.477 798.675 C 629.624 801.503, 629.628 802, 631.500 802 C 632.325 802, 633 802.450, 633 803 C 633 803.550, 632.663 803.947, 632.250 803.882 C 630.122 803.546, 629.861 804.189, 631.425 805.917 L 633.159 807.834 632.238 809.667 C 631.182 811.768, 631.337 832.344, 632.435 835.798 L 633.165 838.096 632.048 839.443 C 631.433 840.183, 631.017 841.174, 631.124 841.645 C 631.230 842.115, 630.971 843.293, 630.547 844.263 L 629.776 846.025 631.092 847.610 C 632.745 849.602, 633.313 853, 631.994 853 C 630.426 853, 630.836 855.723, 632.500 856.362 L 634 856.937 634 860.469 L 634 864 632.500 864 L 631 864 631 867.406 L 631 870.813 632.887 870.319 L 634.775 869.826 634.497 873.163 C 634.344 874.998, 634.170 877.723, 634.110 879.219 L 634 881.937 632.500 881.362 C 631.675 881.045, 631 881.251, 631 881.820 C 631 882.388, 631.762 883, 632.694 883.180 L 634.387 883.506 634.112 889.503 L 633.837 895.500 632.345 896.341 L 630.854 897.181 632.452 898.947 L 634.050 900.713 632.525 901.979 L 631 903.245 631 908.622 L 631 914 629.215 914 C 628.234 914, 624.870 913.100, 621.740 912 C 618.611 910.900, 615.358 910, 614.511 910 C 613.665 910, 612.191 909.581, 611.236 909.068 C 610.281 908.556, 599.150 905.612, 586.500 902.526 C 573.850 899.441, 562.600 896.664, 561.500 896.357 C 560.400 896.049, 558.255 895.566, 556.734 895.283 C 555.213 895, 552.392 893.965, 550.465 892.982 L 546.961 891.196 542.999 891.727 C 540.820 892.019, 537.792 891.792, 536.269 891.223 C 534.746 890.653, 532.600 889.860, 531.500 889.460 C 530.400 889.060, 527.573 888.624, 525.218 888.492 C 522.862 888.360, 520.162 887.555, 519.218 886.704 C 518.273 885.852, 516.263 884.847, 514.750 884.470 L 512 883.783 512 884.892 C 512 886.729, 506.434 886.137, 504.595 884.105 L 502.880 882.210 493.190 882.302 L 483.500 882.395 477.597 879.553 L 471.694 876.710 469.893 877.835 L 468.093 878.959 467.511 878.018 C 466.918 877.058, 459.816 876.730, 443.114 876.891 L 433.727 876.982 432.278 878.184 L 430.829 879.387 431.238 889.370 L 431.647 899.354 433.823 900.799 C 435.021 901.594, 436 902.817, 436 903.517 C 436 904.217, 437.117 905.850, 438.483 907.145 C 439.848 908.440, 440.973 909.799, 440.983 910.165 C 441 910.847, 441.763 911.814, 449.194 920.580 C 451.562 923.375, 455.075 927.597, 457 929.964 C 458.925 932.331, 461.845 935.630, 463.488 937.295 C 465.132 938.960, 466.932 941.085, 467.488 942.018 C 470.512 947.084, 476.398 955, 477.142 955 C 477.614 955, 478 955.464, 478 956.031 C 478 956.598, 479.800 958.717, 482 960.740 C 484.200 962.763, 486.007 965.111, 486.014 965.959 C 486.029 967.540, 489.535 971.378, 498.750 979.897 C 501.637 982.567, 504 985.257, 504 985.875 C 504 986.494, 504.675 987, 505.500 987 L 507 987 507 989 C 507 990.100, 507.435 991, 507.967 991 C 508.498 991, 510.508 992.575, 512.433 994.500 C 514.358 996.425, 516.390 998, 516.948 998 C 517.505 998, 518.244 999.125, 518.589 1000.500 C 518.934 1001.875, 519.827 1003, 520.573 1003 C 521.319 1003, 522.411 1003.900, 523 1005 C 523.589 1006.100, 524.744 1007, 525.567 1007 C 526.389 1007, 527.318 1007.666, 527.630 1008.479 C 527.943 1009.293, 530.204 1010.960, 532.656 1012.185 L 537.114 1014.411 536.542 1016.689 L 535.970 1018.966 540.139 1021.986 C 542.432 1023.647, 546.047 1025.474, 548.173 1026.047 C 550.298 1026.619, 552.587 1027.968, 553.259 1029.044 C 553.931 1030.120, 555.262 1031, 556.217 1031 C 557.173 1031, 558.691 1032.125, 559.592 1033.500 L 561.230 1036 563.493 1036 C 564.737 1036, 566.315 1036.675, 567 1037.500 L 568.245 1039 567.058 1040.430 L 565.871 1041.861 567.915 1042.954 C 569.039 1043.556, 571 1043.787, 572.273 1043.468 L 574.587 1042.887 577.378 1045.082 L 580.169 1047.278 578.839 1048.099 L 577.510 1048.921 579.505 1050.442 L 581.500 1051.964 584.400 1051.369 L 587.300 1050.775 586.697 1052.347 L 586.094 1053.919 592.297 1057.071 C 595.709 1058.804, 599.625 1060.993, 601 1061.936 C 602.375 1062.879, 604.962 1064.234, 606.750 1064.947 C 608.537 1065.659, 610 1066.565, 610 1066.959 C 610 1067.353, 612.444 1068.872, 615.432 1070.335 C 618.419 1071.798, 621.136 1073.854, 621.470 1074.904 C 621.803 1075.955, 621.548 1078.910, 620.903 1081.472 L 619.730 1086.130 620.818 1087.218 L 621.906 1088.306 621.077 1089.903 C 619.518 1092.905, 621.086 1137.739, 623.064 1146.717 C 623.575 1149.036, 624.269 1153.986, 624.606 1157.717 C 624.942 1161.447, 625.820 1166.270, 626.555 1168.433 C 627.290 1170.596, 627.666 1172.732, 627.389 1173.179 C 625.364 1176.455, 625.329 1181.345, 627.204 1198.395 C 628.161 1207.086, 628.821 1216.500, 628.896 1222.484 C 628.916 1224.125, 628.498 1225.902, 627.966 1226.434 C 627.435 1226.965, 627 1228.899, 627 1230.731 L 627 1234.063 628.344 1234.578 L 629.687 1235.094 629.653 1251.797 C 629.607 1273.913, 630.105 1285.098, 631.234 1287.333 L 632.159 1289.166 630.710 1290.833 C 629.277 1292.482, 629.492 1294.969, 631.163 1296.067 C 632.047 1296.648, 633.127 1303.532, 633.034 1308 C 633.006 1309.375, 632.537 1310.650, 631.991 1310.833 C 630.436 1311.356, 630.832 1315.010, 632.500 1315.531 C 633.325 1315.789, 634.694 1316.218, 635.543 1316.485 L 637.086 1316.970 636.064 1318.880 L 635.042 1320.790 636.636 1322.113 C 637.512 1322.840, 639.190 1323.450, 640.365 1323.468 L 642.500 1323.500 642.416 1325.791 L 642.332 1328.083 643.916 1327.769 C 644.787 1327.596, 645.977 1328.365, 646.560 1329.478 L 647.620 1331.500 650.560 1331.242 C 652.177 1331.100, 654.552 1331.231, 655.838 1331.533 L 658.177 1332.082 656.976 1333.529 L 655.775 1334.976 657.405 1335.602 C 658.302 1335.946, 660.461 1335.638, 662.202 1334.916 L 665.368 1333.605 665.749 1334.746 C 665.958 1335.374, 666.775 1335.640, 667.565 1335.337 C 668.354 1335.034, 669 1335.284, 669 1335.893 C 669 1337.607, 673.134 1337.199, 674.484 1335.353 L 675.689 1333.705 678.409 1334.388 L 681.130 1335.071 680.815 1337.285 L 680.500 1339.500 677.750 1339.816 L 675 1340.133 675 1341.566 C 675 1343.986, 682.377 1343.874, 685.096 1341.413 L 686.799 1339.872 690.400 1340.547 C 692.380 1340.919, 694 1341.767, 694 1342.432 L 694 1343.641 702.911 1343.870 L 711.821 1344.098 712.524 1342.962 C 712.910 1342.337, 712.725 1341.325, 712.113 1340.713 C 710.577 1339.177, 710.720 1338, 712.443 1338 C 713.237 1338, 714.587 1339, 715.443 1340.223 L 717 1342.445 717 1340.248 L 717 1338.050 720.250 1338.666 C 722.038 1339.004, 724.057 1339.718, 724.737 1340.253 C 725.418 1340.787, 726.696 1340.947, 727.578 1340.609 C 730.186 1339.608, 731.374 1341.127, 728.951 1342.364 C 727.726 1342.989, 726.674 1343.950, 726.612 1344.500 C 726.452 1345.926, 730.860 1346.361, 732.412 1345.073 L 733.714 1343.993 736.857 1344.621 L 740 1345.250 740 1343.125 L 740 1341 741.750 1341.045 C 742.712 1341.070, 744.827 1341.656, 746.449 1342.348 L 749.398 1343.606 754.219 1341.204 C 756.870 1339.882, 759.687 1339.050, 760.479 1339.354 C 761.271 1339.657, 762.304 1341.390, 762.774 1343.203 L 763.630 1346.500 768.304 1346.613 C 770.875 1346.676, 774.115 1346.509, 775.505 1346.244 L 778.033 1345.761 777.766 1344.167 L 777.500 1342.573 779.347 1342.194 L 781.193 1341.816 780.529 1343.908 L 779.865 1346 781.933 1346 C 783.070 1346, 784 1346.450, 784 1347 L 784 1348 791.941 1348 C 799.398 1348, 803.082 1346.736, 799.563 1345.386 C 798.704 1345.056, 798 1343.879, 798 1342.771 L 798 1340.755 799.502 1342.002 L 801.005 1343.249 803.964 1342.657 C 805.591 1342.332, 807.203 1342.519, 807.545 1343.073 C 807.888 1343.628, 808.993 1343.820, 810 1343.500 C 811.007 1343.180, 812.121 1343.387, 812.475 1343.959 C 812.829 1344.532, 813.991 1345, 815.059 1345 C 816.127 1345, 817 1345.338, 817 1345.750 C 817 1346.162, 818.013 1346.611, 819.250 1346.746 C 820.487 1346.881, 823.975 1347.257, 827 1347.581 L 832.500 1348.171 830.500 1346.644 L 828.500 1345.118 826.250 1345.667 L 824 1346.217 824 1344.501 L 824 1342.786 825.750 1343.464 C 826.712 1343.837, 829.750 1344.409, 832.500 1344.735 C 835.250 1345.061, 839.007 1346.172, 840.849 1347.203 L 844.198 1349.077 855.349 1348.392 C 861.482 1348.015, 868.525 1347.799, 871 1347.913 C 873.475 1348.026, 880.409 1348.359, 886.408 1348.652 L 897.317 1349.185 898.208 1347.593 L 899.099 1346 902.550 1346 L 906 1346 906 1347.364 L 906 1348.727 915.632 1349.231 L 925.265 1349.735 927.169 1347.831 C 928.216 1346.784, 929.555 1346.225, 930.143 1346.589 L 931.214 1347.250 930.008 1347.995 L 928.802 1348.740 932.445 1349.424 C 936.365 1350.159, 940 1349.442, 940 1347.933 C 940 1347.420, 940.661 1347, 941.469 1347 L 942.937 1347 942.362 1348.500 L 941.786 1350 943.443 1350 C 944.354 1350, 946.338 1349.359, 947.853 1348.576 C 949.367 1347.793, 953.508 1347.082, 957.053 1346.997 C 965.597 1346.792, 965.447 1346.755, 963.872 1348.664 L 962.500 1350.327 964.694 1349.158 C 965.901 1348.515, 967.121 1347.613, 967.405 1347.154 C 968.110 1346.012, 976.856 1345.958, 977.556 1347.090 C 977.865 1347.591, 977.416 1348, 976.559 1348 C 975.702 1348, 975 1348.450, 975 1349 C 975 1350.419, 976.632 1350.241, 980.105 1348.446 L 983.111 1346.891 992.305 1347.172 L 1001.500 1347.453 1003.088 1349.386 L 1004.676 1351.318 1005.887 1350.570 L 1007.097 1349.822 1006.062 1348.574 L 1005.026 1347.327 1008.763 1347.182 C 1010.818 1347.102, 1013.850 1347.440, 1015.500 1347.932 C 1017.150 1348.425, 1017.712 1348.867, 1016.750 1348.914 C 1014.653 1349.017, 1014.369 1351, 1016.450 1351 C 1017.248 1351, 1018.336 1350.222, 1018.868 1349.271 L 1019.836 1347.542 1021.747 1349.271 C 1024.055 1351.360, 1025.127 1351.495, 1024.402 1349.606 L 1023.867 1348.212 1028.555 1347.839 L 1033.242 1347.466 1033.704 1348.670 C 1033.958 1349.332, 1034.877 1349.601, 1035.747 1349.267 L 1037.328 1348.660 1036.648 1349.761 C 1036.274 1350.366, 1036.493 1351.187, 1037.135 1351.584 L 1038.303 1352.306 1039.620 1350.504 L 1040.937 1348.703 1042.467 1349.973 C 1044.589 1351.733, 1051.742 1351.985, 1056.317 1350.460 L 1060.135 1349.188 1060.674 1350.594 L 1061.214 1352 1068.607 1352 C 1072.673 1352, 1076 1351.605, 1076 1351.121 C 1076 1350.638, 1077.324 1349.694, 1078.943 1349.024 L 1081.885 1347.805 1085.937 1348.489 C 1088.166 1348.866, 1090.243 1349.585, 1090.554 1350.087 C 1091.454 1351.543, 1094.731 1351.143, 1095.362 1349.500 L 1095.937 1348 1102.528 1348 L 1109.118 1348 1108.500 1349 C 1108.160 1349.550, 1107.009 1350, 1105.941 1350 C 1104.873 1350, 1104 1350.453, 1104 1351.007 L 1104 1352.014 1111.250 1351.397 C 1115.237 1351.057, 1120.300 1350.317, 1122.500 1349.752 C 1124.700 1349.187, 1129.508 1348.814, 1133.185 1348.922 L 1139.870 1349.119 1143.067 1347.465 L 1146.264 1345.812 1149.882 1346.464 C 1151.872 1346.822, 1156.198 1347.277, 1159.495 1347.473 L 1165.490 1347.831 1163.713 1346.532 L 1161.936 1345.233 1164.528 1344.582 C 1167.404 1343.860, 1174 1344.812, 1174 1345.949 C 1174 1347.040, 1180.289 1347.060, 1182.005 1345.976 L 1183.500 1345.031 1181.250 1345.015 C 1180.013 1345.007, 1179 1344.592, 1179 1344.093 C 1179 1342.930, 1190.022 1342.222, 1190.711 1343.340 C 1191.279 1344.260, 1197.899 1343.286, 1199.500 1342.047 C 1200.050 1341.621, 1202.412 1340.981, 1204.750 1340.625 L 1209 1339.976 1209 1340.969 C 1209 1341.515, 1207.763 1342.233, 1206.250 1342.564 C 1204.737 1342.896, 1202.825 1343.440, 1202 1343.774 L 1200.500 1344.381 1203.419 1344.773 C 1206.778 1345.225, 1215 1343.164, 1215 1341.870 C 1215 1341.392, 1215.873 1341, 1216.941 1341 C 1218.009 1341, 1219.165 1340.543, 1219.510 1339.984 C 1219.856 1339.425, 1220.539 1339.215, 1221.028 1339.518 C 1221.518 1339.820, 1222.864 1339.490, 1224.020 1338.784 L 1226.122 1337.500 1227.540 1339.413 L 1228.959 1341.326 1233.629 1341.149 C 1236.198 1341.052, 1238.795 1340.359, 1239.400 1339.610 C 1240.005 1338.860, 1241.963 1337.978, 1243.750 1337.649 L 1247 1337.050 1247 1338.038 L 1247 1339.027 1250.734 1337.467 L 1254.469 1335.906 1254.818 1336.953 C 1255.010 1337.529, 1257.408 1338, 1260.147 1338 L 1265.128 1338 1270.594 1335.500 C 1273.600 1334.125, 1276.334 1333, 1276.669 1333 C 1277.005 1333, 1277.822 1333.741, 1278.484 1334.647 L 1279.689 1336.295 1282.344 1335.628 C 1283.805 1335.262, 1285 1334.295, 1285 1333.481 C 1285 1332.666, 1285.675 1332, 1286.500 1332 C 1287.325 1332, 1288 1331.550, 1288 1331 C 1288 1330.450, 1288.675 1330, 1289.500 1330 C 1290.325 1330, 1291 1330.520, 1291 1331.155 L 1291 1332.310 1292.829 1330.655 C 1295.243 1328.470, 1297.579 1328.561, 1299.220 1330.904 L 1300.554 1332.808 1303.277 1332.287 L 1306 1331.767 1306 1329.597 L 1306 1327.428 1309.617 1327.548 L 1313.235 1327.668 1314.092 1329.200 L 1314.950 1330.732 1317.475 1330.250 L 1320 1329.767 1320 1327.942 C 1320 1326.939, 1320.523 1325.795, 1321.162 1325.400 L 1322.324 1324.682 1324.150 1326.936 L 1325.975 1329.191 1330.874 1328.517 L 1335.772 1327.844 1335.269 1325.922 L 1334.767 1324 1337.348 1324 L 1339.930 1324 1340.932 1325.873 L 1341.934 1327.745 1345.205 1327.364 C 1350.195 1326.784, 1352 1326.005, 1352 1324.433 C 1352 1322.506, 1352.997 1322.627, 1354.608 1324.750 L 1355.936 1326.500 1355.968 1324.250 L 1356 1322 1357.750 1321.986 C 1358.713 1321.979, 1360.513 1321.701, 1361.750 1321.370 L 1364 1320.767 1364 1322.883 C 1364 1324.996, 1365.484 1325.519, 1368.355 1324.417 L 1369.874 1323.834 1369.297 1322.331 L 1368.720 1320.827 1370.610 1321.067 C 1371.649 1321.199, 1373.343 1320.944, 1374.374 1320.499 L 1376.248 1319.691 1377.173 1321.346 C 1378.291 1323.343, 1379.805 1323.449, 1381.921 1321.679 C 1382.790 1320.953, 1385.187 1319.870, 1387.249 1319.273 L 1390.998 1318.188 1391.558 1319.094 C 1391.866 1319.592, 1391.615 1320, 1391 1320 C 1390.385 1320, 1390.174 1320.472, 1390.530 1321.049 L 1391.178 1322.097 1392.589 1320.926 C 1393.365 1320.282, 1394 1319.135, 1394 1318.378 C 1394 1317.620, 1394.413 1317, 1394.918 1317 C 1395.423 1317, 1396.660 1316.684, 1397.666 1316.298 L 1399.495 1315.596 1397.852 1318.103 L 1396.209 1320.611 1401.104 1319.608 L 1406 1318.605 1406 1316.196 L 1406 1313.786 1407.563 1314.386 C 1408.423 1314.716, 1410.336 1314.367, 1411.813 1313.611 C 1413.291 1312.855, 1416.358 1311.928, 1418.628 1311.551 L 1422.757 1310.865 1423.563 1304.683 C 1424.762 1295.489, 1424.819 1292.006, 1423.781 1291.365 C 1423.269 1291.048, 1423.783 1289.919, 1424.925 1288.856 C 1426.066 1287.792, 1427 1286.190, 1427 1285.294 C 1427 1284.399, 1426.703 1283.964, 1426.340 1284.327 C 1425.242 1285.425, 1423.296 1281.767, 1422.520 1277.149 L 1421.790 1272.797 1425.395 1269.826 L 1429 1266.854 1429 1263.427 C 1429 1261.542, 1428.775 1260, 1428.500 1260 C 1428.225 1260, 1427.062 1260.938, 1425.917 1262.083 C 1424.771 1263.229, 1423.654 1263.987, 1423.434 1263.767 C 1423.214 1263.548, 1423.570 1261.951, 1424.224 1260.218 L 1425.413 1257.068 1423.273 1254.784 L 1421.133 1252.500 1422.226 1250.553 L 1423.320 1248.607 1422.160 1248.220 C 1420.744 1247.748, 1420.602 1244, 1422 1244 C 1422.550 1244, 1423 1244.675, 1423 1245.500 C 1423 1246.325, 1423.225 1247, 1423.500 1247 C 1424.528 1247, 1428.144 1242.811, 1427.592 1242.259 C 1427.276 1241.943, 1427.489 1241.116, 1428.065 1240.421 C 1429.438 1238.767, 1428.617 1228.706, 1427.067 1228.189 C 1426.408 1227.969, 1425.620 1228.737, 1425.317 1229.895 C 1425.014 1231.053, 1424.144 1232, 1423.383 1232 C 1421.545 1232, 1421.628 1230.229, 1423.558 1228.300 C 1424.414 1227.443, 1424.864 1226.088, 1424.558 1225.289 C 1424.251 1224.490, 1424 1223.251, 1424 1222.535 C 1424 1221.819, 1423.055 1220.986, 1421.899 1220.684 C 1419.180 1219.973, 1420.228 1218.328, 1423.918 1217.518 L 1426.813 1216.882 1427.335 1214.691 C 1427.623 1213.486, 1427.886 1208.787, 1427.921 1204.250 L 1427.983 1196 1426.992 1196 C 1426.446 1196, 1426 1196.873, 1426 1197.941 C 1426 1200.760, 1424.392 1201.316, 1422.047 1199.308 C 1419.908 1197.477, 1419.348 1194.077, 1420.915 1192.450 C 1421.419 1191.928, 1421.981 1190.380, 1422.165 1189.010 C 1422.349 1187.641, 1423.229 1186.382, 1424.121 1186.212 L 1425.741 1185.903 1426.512 1188.202 L 1427.282 1190.500 1427.719 1187.628 C 1427.960 1186.049, 1427.690 1184.290, 1427.119 1183.719 L 1426.082 1182.682 1426.660 1178.465 C 1426.978 1176.145, 1426.772 1173.414, 1426.201 1172.396 L 1425.165 1170.544 1423.922 1173.272 C 1422.462 1176.476, 1421 1176.840, 1421 1174 C 1421 1172.900, 1421.382 1172, 1421.848 1172 C 1422.314 1172, 1422.734 1170.650, 1422.781 1169 C 1422.828 1167.350, 1422.446 1166, 1421.933 1166 C 1421.420 1166, 1421 1164.650, 1421 1163 C 1421 1159.782, 1422.658 1158.944, 1423.692 1161.640 L 1424.322 1163.281 1425.485 1161.690 L 1426.648 1160.100 1426.074 1155.800 C 1425.758 1153.435, 1424.975 1151.500, 1424.333 1151.500 C 1421.940 1151.500, 1421.972 1150.131, 1424.451 1146.478 C 1425.853 1144.411, 1427 1141.714, 1427 1140.483 C 1427 1137.525, 1424.238 1131, 1422.987 1131 C 1422.444 1131, 1422 1130.550, 1422 1130 C 1422 1129.450, 1422.900 1129, 1424 1129 L 1426 1129 1426 1125.329 C 1426 1123.310, 1425.273 1120.854, 1424.384 1119.872 L 1422.767 1118.086 1422.634 1113.293 L 1422.500 1108.500 1424.250 1108.794 L 1426 1109.088 1425.986 1107.294 C 1425.979 1106.307, 1425.709 1104.519, 1425.388 1103.319 L 1424.803 1101.138 1423.401 1101.676 L 1422 1102.214 1422 1099.666 C 1422 1098.265, 1422.457 1096.835, 1423.016 1096.490 C 1423.575 1096.144, 1423.769 1095.436, 1423.447 1094.915 C 1423.125 1094.394, 1422.535 1094.170, 1422.135 1094.417 C 1421.735 1094.664, 1421.409 1093.209, 1421.411 1091.183 C 1421.413 1089.157, 1421.048 1086.713, 1420.601 1085.750 L 1419.786 1084 1421.393 1084 C 1422.277 1084, 1423 1084.450, 1423 1085 C 1423 1085.550, 1423.483 1086, 1424.073 1086 C 1424.664 1086, 1424.995 1085.213, 1424.810 1084.250 C 1424.624 1083.287, 1423.841 1082.500, 1423.070 1082.500 C 1422.298 1082.500, 1421.479 1081.938, 1421.250 1081.250 C 1421.021 1080.563, 1421.519 1080, 1422.358 1080 C 1424.625 1080, 1425.115 1078.571, 1424.394 1074.061 L 1423.744 1070 1422.372 1070 C 1420.866 1070, 1420.511 1068.420, 1421.833 1067.603 C 1422.292 1067.320, 1422.498 1065.831, 1422.292 1064.294 L 1421.916 1061.500 1426.042 1056.743 C 1428.311 1054.126, 1430.548 1052.220, 1431.012 1052.507 C 1431.476 1052.794, 1432.178 1052.010, 1432.571 1050.765 C 1432.965 1049.519, 1434.149 1047.893, 1435.202 1047.152 L 1437.117 1045.804 1436.809 1043.176 L 1436.500 1040.547 1438.633 1040.524 L 1440.766 1040.500 1445.633 1034.565 C 1448.310 1031.301, 1451.737 1027.263, 1453.250 1025.592 C 1454.763 1023.921, 1456 1022.049, 1456 1021.431 C 1456 1020.813, 1458.032 1018.326, 1460.516 1015.904 C 1468.602 1008.019, 1470 1006.443, 1470 1005.212 C 1470 1004.546, 1470.490 1004, 1471.090 1004 C 1472.567 1004, 1475.926 999.861, 1475.967 997.991 C 1475.985 997.160, 1476.873 995.936, 1477.939 995.270 C 1479.006 994.604, 1480.639 992.455, 1481.569 990.495 C 1482.500 988.535, 1484.102 986.481, 1485.130 985.930 C 1486.159 985.380, 1487 984.534, 1487 984.051 C 1487 983.568, 1489.362 980.688, 1492.250 977.652 C 1499.667 969.852, 1500.865 968.426, 1506.642 960.529 C 1509.470 956.663, 1512.620 952.604, 1513.642 951.508 C 1514.664 950.413, 1517.353 947.005, 1519.618 943.935 C 1521.883 940.865, 1524.921 937.421, 1526.368 936.282 C 1527.816 935.144, 1529 933.700, 1529 933.075 C 1529 932.449, 1529.700 931.669, 1530.555 931.340 C 1531.411 931.012, 1533.864 927.989, 1536.007 924.622 C 1538.151 921.255, 1540.574 917.813, 1541.392 916.973 C 1542.210 916.133, 1543.346 914.221, 1543.915 912.723 C 1544.485 911.225, 1545.412 910, 1545.975 910 C 1546.539 910, 1547 909.541, 1547 908.981 C 1547 907.251, 1554.397 898.222, 1556.250 897.690 L 1558 897.187 1558.033 894.844 C 1558.076 891.848, 1561.164 888.120, 1563.426 888.335 L 1565.169 888.500 1568.910 881.500 C 1573.905 872.153, 1577.284 867.036, 1578.500 866.974 C 1580.175 866.890, 1585 859.134, 1585 856.526 C 1585 855.179, 1585.943 853.200, 1587.095 852.126 L 1589.190 850.174 1588.581 848.256 L 1587.973 846.338 1590.751 842.419 C 1592.279 840.264, 1594.641 836.250, 1596.001 833.500 C 1597.360 830.750, 1598.990 828.169, 1599.622 827.764 C 1600.255 827.359, 1601.068 825.452, 1601.429 823.526 C 1601.790 821.600, 1602.926 819.575, 1603.953 819.025 L 1605.820 818.026 1606.518 813.891 L 1607.217 809.756 1609.109 809.261 C 1610.149 808.989, 1611 808.199, 1611 807.506 C 1611 806.812, 1611.615 805.735, 1612.366 805.111 C 1613.117 804.488, 1614.297 801.170, 1614.989 797.739 C 1615.681 794.308, 1617.367 789.747, 1618.735 787.603 L 1621.222 783.707 1621.553 774.437 L 1621.884 765.166 1619.550 762.649 C 1618.267 761.264, 1615.550 759.819, 1613.512 759.436 L 1609.807 758.741 1605.654 759.965 C 1603.369 760.638, 1600.150 761.782, 1598.500 762.507 C 1596.850 763.231, 1592.845 764.782, 1589.601 765.954 C 1583.850 768.030, 1569.041 774.140, 1560 778.166 C 1555.239 780.287, 1523.550 795.642, 1521 797.065 C 1520.175 797.525, 1517.475 798.863, 1515 800.038 C 1512.525 801.213, 1508.864 803.035, 1506.864 804.087 C 1504.864 805.139, 1502.557 806, 1501.736 806 C 1500.916 806, 1499.634 806.736, 1498.887 807.637 C 1498.140 808.537, 1495.506 810.140, 1493.034 811.200 C 1490.562 812.259, 1488.303 813.510, 1488.013 813.979 C 1487.542 814.741, 1481.047 818.495, 1471 823.813 C 1469.075 824.831, 1464.350 827.387, 1460.500 829.492 C 1456.650 831.597, 1451.700 834.282, 1449.500 835.459 C 1444.639 838.061, 1442.237 839.551, 1429.831 847.672 C 1424.514 851.152, 1419.226 854, 1418.081 854 C 1416.937 854, 1416 854.450, 1416 855 C 1416 855.550, 1415.325 856, 1414.500 856 L 1413 856 1413 854.019 L 1413 852.038 1415.500 851.411 L 1418 850.783 1418 848.092 C 1418 846.611, 1417.508 844.908, 1416.907 844.307 L 1415.815 843.215 1416.861 841.261 L 1417.906 839.306 1416.796 838.196 L 1415.685 837.085 1416.706 835.792 C 1417.268 835.082, 1417.714 833.723, 1417.697 832.773 L 1417.667 831.046 1415.333 831.631 L 1413 832.217 1412.889 830.358 C 1412.828 829.336, 1412.864 827.464, 1412.968 826.197 C 1413.072 824.930, 1412.608 823.232, 1411.936 822.423 C 1409.896 819.965, 1411.524 819.828, 1414.110 822.240 L 1416.533 824.500 1416.689 820.262 C 1416.776 817.930, 1416.440 815.772, 1415.944 815.465 C 1415.447 815.159, 1414.123 815.399, 1413 816 C 1411.877 816.601, 1410.496 816.807, 1409.931 816.457 L 1408.903 815.822 1410.074 814.411 L 1411.245 813 1410.040 811.548 L 1408.834 810.096 1410.667 807.579 C 1412.880 804.542, 1414.511 804.176, 1412.966 807.064 L 1411.861 809.128 1413.044 810.553 C 1415.715 813.771, 1416.119 810.882, 1415.116 795.750 C 1414.955 793.325, 1412.278 793.550, 1411.483 796.055 C 1411.124 797.185, 1410.306 797.936, 1409.665 797.722 C 1407.513 797.006, 1407.827 793.994, 1410.368 790.974 L 1412.889 787.979 1413.809 789.624 L 1414.730 791.269 1414.643 783.634 L 1414.556 776 1412.662 776 L 1410.767 776 1411.245 778.500 C 1411.965 782.270, 1410.690 781.504, 1408.736 776.993 C 1406.679 772.245, 1406.550 770.318, 1408.250 769.746 L 1409.500 769.325 1408.107 767.638 C 1406.348 765.507, 1407.426 764.278, 1409.526 766.022 L 1411.100 767.328 1412.611 765.818 C 1413.441 764.987, 1414.149 762.776, 1414.183 760.904 C 1414.299 754.598, 1413.664 747, 1413.020 747 C 1412.669 747, 1412.348 744.727, 1412.306 741.948 C 1412.221 736.322, 1411.345 734.632, 1409.875 737.258 C 1409.339 738.216, 1408.232 739, 1407.415 739 L 1405.930 739 1406.965 737.066 C 1408.451 734.289, 1408.260 733.783, 1406 734.500 L 1404 735.135 1404 732.067 C 1404 730.380, 1404.498 729, 1405.107 729 C 1405.716 729, 1405.942 728.292, 1405.611 727.428 C 1404.842 725.424, 1406.766 721.737, 1408.137 722.585 C 1408.708 722.937, 1408.956 724.058, 1408.690 725.076 C 1408.424 726.094, 1408.835 727.448, 1409.603 728.086 L 1411 729.245 1411.118 727.372 C 1411.184 726.343, 1411.134 725.050, 1411.008 724.500 C 1410.882 723.950, 1410.652 720.575, 1410.498 717 C 1410.343 713.425, 1410.168 710.163, 1410.108 709.750 C 1409.895 708.274, 1408.140 709.034, 1407.800 710.750 L 1407.453 712.500 1406.717 711.331 C 1406.313 710.687, 1406.670 709.473, 1407.511 708.632 L 1409.040 707.103 1409.077 699.302 C 1409.098 695.011, 1409.119 690.007, 1409.124 688.182 C 1409.129 686.358, 1408.659 684.294, 1408.079 683.595 C 1406.759 682.005, 1405.041 663.620, 1406.170 663.167 C 1407.857 662.489, 1406.898 658.773, 1403 650.879 C 1400.800 646.424, 1399 642.038, 1399 641.133 C 1399 639.311, 1394.073 636.732, 1391.284 637.094 C 1388.834 637.413, 1381.888 636.103, 1379.709 634.911 C 1378.724 634.373, 1377.539 634.167, 1377.076 634.453 C 1376.612 634.740, 1374.043 634.310, 1371.366 633.498 C 1368.690 632.686, 1364.333 632.017, 1361.684 632.011 C 1359.036 632.005, 1355.933 631.499, 1354.790 630.888 L 1352.712 629.775 1333.606 629.372 C 1314.173 628.961, 1310.209 628.744, 1292.500 627.112 C 1287 626.606, 1280.025 626.419, 1277 626.697 C 1273.975 626.975, 1270.150 627.174, 1268.500 627.139 C 1266.850 627.104, 1261.900 627.019, 1257.500 626.950 C 1253.100 626.880, 1248.981 626.395, 1248.347 625.870 C 1247.713 625.346, 1244.563 624.685, 1241.347 624.402 C 1238.131 624.120, 1234.375 623.534, 1233 623.101 C 1231.625 622.668, 1226.450 622.513, 1221.500 622.757 C 1216.550 623.001, 1211.300 623.177, 1209.834 623.147 C 1208.367 623.118, 1206.624 623.748, 1205.961 624.547 C 1205.298 625.346, 1204.277 626, 1203.692 626 C 1203.107 626, 1201.587 626.978, 1200.314 628.174 L 1198 630.349 1198 628.674 C 1198 627.753, 1197.380 627, 1196.622 627 C 1195.126 627, 1192.730 629.396, 1193.478 630.145 C 1193.731 630.398, 1192.380 630.650, 1190.475 630.704 L 1187.011 630.802 1183.921 626.901 C 1180.668 622.793, 1178.070 622.005, 1176 624.500 C 1174.493 626.316, 1171.841 626.441, 1170.175 624.775 L 1168.950 623.550 1166.930 624.812 L 1164.909 626.074 1161.205 625.336 C 1159.167 624.931, 1156.938 624.709, 1156.250 624.843 C 1155.563 624.978, 1155 624.591, 1155 623.985 C 1155 623.378, 1155.450 623.160, 1156 623.500 C 1156.550 623.840, 1157 623.641, 1157 623.059 C 1157 621.496, 1154.084 621.773, 1152.357 623.500 C 1151.532 624.325, 1149.652 625.032, 1148.179 625.070 C 1144.683 625.162, 1142.500 626.192, 1142.500 627.750 C 1142.500 628.438, 1142.162 629, 1141.750 629 C 1141.338 629, 1139.650 629, 1138 629 C 1136.350 629, 1135 628.550, 1135 628 C 1135 627.450, 1135.623 627, 1136.383 627 C 1137.144 627, 1137.974 625.917, 1138.227 624.594 L 1138.687 622.187 1135.700 621.590 C 1134.058 621.262, 1132.182 621.434, 1131.533 621.973 L 1130.352 622.952 1129.232 621.832 L 1128.111 620.711 1124.912 622.036 C 1123.153 622.765, 1120.617 624.377, 1119.277 625.619 L 1116.841 627.876 1113.171 627.540 C 1111.152 627.354, 1109.318 627.157, 1109.095 627.101 C 1108.872 627.046, 1109.517 626.086, 1110.528 624.969 L 1112.366 622.938 1110.768 621.339 L 1109.169 619.741 1106.712 620.357 L 1104.255 620.974 1103.703 623.737 L 1103.150 626.500 1100.248 626.416 C 1098.652 626.370, 1096.768 625.975, 1096.062 625.538 L 1094.776 624.744 1094.013 625.979 L 1093.250 627.214 1092.566 626.107 C 1092.190 625.498, 1092.167 624.539, 1092.515 623.975 C 1092.864 623.412, 1092.778 623.015, 1092.324 623.094 C 1091.871 623.172, 1090.664 623.184, 1089.643 623.118 L 1087.786 623 1088.385 621.438 L 1088.984 619.877 1087.242 620.163 C 1086.284 620.321, 1085.001 620.136, 1084.390 619.753 C 1083.190 618.998, 1078.021 621.021, 1078.008 622.250 C 1077.991 623.862, 1075.162 622.883, 1073.674 620.750 L 1072.105 618.500 1072.037 621 C 1072 622.375, 1071.533 624.175, 1071 625 L 1070.031 626.500 1070.015 625.313 L 1070 624.126 1066.332 624.721 L 1062.665 625.316 1063.316 623.620 L 1063.966 621.924 1062.339 621.300 L 1060.711 620.675 1059.495 622.338 C 1058.827 623.252, 1057.767 624, 1057.140 624 C 1055.110 624, 1055.931 622.352, 1058.556 621.156 C 1059.962 620.516, 1060.836 619.543, 1060.497 618.996 C 1059.522 617.417, 1056.179 617.840, 1055.823 619.587 L 1055.500 621.174 1048.626 621.632 L 1041.751 622.091 1042.276 620.724 L 1042.800 619.358 1035.793 619.228 L 1028.787 619.098 1028.277 621.049 C 1027.504 624.004, 1026 623.383, 1026 620.109 L 1026 617.219 1018.570 617.107 L 1011.140 616.995 1010.820 619.248 L 1010.500 621.500 1008.313 621.811 L 1006.126 622.123 1004.448 619.561 C 1002.728 616.936, 999.635 616.164, 998.459 618.067 C 998.096 618.653, 998.588 619.709, 999.551 620.414 L 1001.303 621.695 1000.151 622.406 C 999.518 622.798, 999 622.633, 999 622.040 L 999 620.962 996.544 621.578 L 994.087 622.195 993.435 619.597 C 993.077 618.169, 992.269 617.072, 991.642 617.160 C 991.014 617.248, 989.038 617.502, 987.250 617.723 M 1163.404 806.693 C 1155.991 808.496, 1149 811.129, 1149 812.119 C 1149 812.603, 1148.208 813, 1147.241 813 C 1146.273 813, 1144.888 813.949, 1144.164 815.110 L 1142.846 817.219 1140.026 816.655 L 1137.206 816.091 1129.353 820.057 C 1119.683 824.941, 1116.732 827.068, 1106.118 836.808 C 1097.773 844.467, 1091.803 851.609, 1088.654 857.700 C 1086.829 861.231, 1086.413 868, 1088.021 868 C 1088.583 868, 1089.555 869.125, 1090.182 870.500 C 1090.808 871.875, 1091.586 872.996, 1091.911 872.990 C 1092.235 872.985, 1096.645 869.413, 1101.711 865.052 C 1110.270 857.685, 1125.271 847, 1127.055 847 C 1127.483 847, 1127.983 846.618, 1128.167 846.152 C 1128.350 845.685, 1131.520 843.871, 1135.211 842.119 C 1138.902 840.368, 1142.168 838.538, 1142.468 838.052 C 1143.502 836.379, 1158.761 832.136, 1170 830.396 C 1175.572 829.534, 1189.147 829.225, 1190.500 829.929 C 1191.050 830.215, 1192.625 830.579, 1194 830.736 C 1200.553 831.489, 1210.724 834.559, 1216.792 837.615 C 1220.481 839.473, 1224.110 840.995, 1224.856 840.997 C 1226.027 841, 1227.854 842.242, 1233.708 847.015 C 1234.372 847.557, 1235.206 848, 1235.561 848 C 1236.536 848, 1250.984 860.240, 1255.202 864.639 C 1257.237 866.763, 1261.512 871.051, 1264.702 874.168 L 1270.500 879.836 1273.250 879.302 L 1276 878.767 1276 876.942 C 1276 875.939, 1276.450 874.840, 1277 874.500 C 1278.896 873.328, 1277.988 869.093, 1274.065 860.809 C 1270.136 852.515, 1267.826 849.213, 1260.750 841.780 C 1258.688 839.614, 1256.984 837.540, 1256.963 837.171 C 1256.943 836.802, 1254.018 834.256, 1250.463 831.512 C 1246.909 828.769, 1244 826.182, 1244 825.762 C 1244 825.343, 1243.403 825, 1242.674 825 C 1241.945 825, 1240.258 823.827, 1238.924 822.394 C 1237.591 820.961, 1235.600 819.379, 1234.500 818.879 C 1233.400 818.379, 1231.150 817.084, 1229.500 816 C 1225.599 813.438, 1222.215 811.989, 1218.500 811.290 C 1216.850 810.979, 1214.825 810.176, 1214 809.504 C 1212.187 808.027, 1208.855 807.062, 1203.500 806.461 C 1201.300 806.215, 1197.797 805.777, 1195.716 805.489 C 1193.635 805.201, 1191.084 805.420, 1190.047 805.975 L 1188.161 806.984 1187.810 805.930 L 1187.458 804.875 1184.645 805.945 C 1183.098 806.533, 1181.307 806.674, 1180.666 806.257 C 1178.888 805.102, 1168.907 805.354, 1163.404 806.693 M 1533.266 843.134 C 1532.642 843.758, 1530.520 844.396, 1528.551 844.552 C 1525.052 844.830, 1520.856 846.460, 1510.275 851.654 L 1505.049 854.219 1507.275 856.089 L 1509.500 857.959 1508.048 858.914 C 1507.249 859.439, 1506.237 859.646, 1505.798 859.375 C 1505.359 859.104, 1505 859.306, 1505 859.824 C 1505 860.343, 1503.875 860.982, 1502.500 861.245 C 1501.125 861.508, 1500 861.371, 1500 860.941 C 1500 860.511, 1498.688 859.871, 1497.084 859.518 L 1494.168 858.878 1492.084 860.180 C 1489.752 861.636, 1489.355 863.594, 1491.250 864.297 L 1492.500 864.760 1490.718 866.626 L 1488.936 868.492 1489.218 865.999 L 1489.500 863.506 1487.500 863.223 C 1486.400 863.067, 1483.173 864.415, 1480.329 866.220 C 1477.484 868.024, 1473.764 870.271, 1472.061 871.213 C 1470.358 872.156, 1468.683 873.664, 1468.337 874.564 L 1467.709 876.202 1469.076 877.047 L 1470.444 877.892 1468.472 878.600 C 1467.387 878.990, 1466.168 879.487, 1465.761 879.706 C 1465.355 879.925, 1465.291 879.406, 1465.618 878.552 C 1465.946 877.698, 1465.912 877, 1465.543 877 C 1463.768 877, 1453.794 882.206, 1451.856 884.144 C 1450.649 885.351, 1447.600 887.425, 1445.081 888.753 C 1442.561 890.081, 1439.350 892.255, 1437.945 893.584 C 1436.540 894.913, 1434.628 896, 1433.695 896 C 1432.763 896, 1431.952 896.788, 1431.894 897.750 C 1431.835 898.712, 1431.723 900.349, 1431.644 901.386 C 1431.501 903.262, 1430.186 904.327, 1426.637 905.440 L 1424.775 906.024 1426.010 907.512 L 1427.245 909 1425.872 910.654 C 1425.118 911.563, 1424.583 912.576, 1424.684 912.904 C 1424.786 913.232, 1424.223 913.368, 1423.434 913.206 C 1421.749 912.861, 1421.506 914.577, 1423.101 915.562 L 1424.201 916.243 1423.609 919.203 C 1423.284 920.831, 1423.483 923.034, 1424.052 924.097 L 1425.086 926.030 1423.662 926.576 L 1422.238 927.123 1423.070 930.810 L 1423.902 934.498 1422.951 935.449 C 1421.865 936.535, 1421.691 941.031, 1422.639 943.502 L 1423.278 945.168 1424.085 943.863 C 1424.528 943.145, 1425.253 942.919, 1425.694 943.361 C 1426.136 943.802, 1425.819 944.689, 1424.991 945.332 L 1423.485 946.500 1423.593 950.500 L 1423.701 954.500 1425.908 954.827 L 1428.115 955.154 1427.808 958.327 L 1427.500 961.500 1426.250 961.250 C 1424.527 960.905, 1424.681 962.490, 1426.519 964.016 L 1428.038 965.276 1429.910 963.581 L 1431.783 961.886 1431.271 959.928 L 1430.759 957.970 1432.295 958.560 L 1433.831 959.149 1438.665 953.937 C 1441.324 951.071, 1444.963 947.354, 1446.750 945.679 C 1448.537 944.003, 1450 942.088, 1450 941.423 C 1450 940.758, 1450.675 939.955, 1451.500 939.638 C 1452.325 939.322, 1453 938.149, 1453 937.031 L 1453 935 1455.094 935 L 1457.187 935 1457.677 933.126 C 1457.947 932.096, 1459.480 930.282, 1461.084 929.096 L 1464 926.940 1464 924.529 C 1464 921.796, 1465.531 920.347, 1466.415 922.244 L 1467 923.500 1467.583 922.250 C 1467.904 921.563, 1468.749 921, 1469.461 921 C 1471.422 921, 1473.250 918.304, 1473.250 915.413 L 1473.250 912.832 1475.224 913.348 L 1477.198 913.864 1476.721 912.043 C 1476.039 909.431, 1477.302 907.901, 1480.422 907.558 L 1483.137 907.260 1486.028 903.880 C 1487.618 902.021, 1488.937 899.712, 1488.959 898.750 C 1488.982 897.788, 1489.450 897, 1490 897 C 1490.550 897, 1491 896.277, 1491 895.393 L 1491 893.786 1492.520 894.369 C 1493.356 894.690, 1495.137 893.998, 1496.478 892.832 L 1498.916 890.712 1497.923 888.856 C 1496.903 886.950, 1497.261 886.647, 1500.187 886.937 C 1502.050 887.122, 1504.443 883.526, 1503.487 881.979 C 1503.154 881.441, 1503.964 881, 1505.286 881 C 1506.608 881, 1508.527 880.075, 1509.551 878.944 L 1511.411 876.888 1510.262 875.048 L 1509.113 873.208 1511.038 871.466 L 1512.962 869.724 1514.379 870.900 L 1515.796 872.075 1517.898 869.403 C 1519.054 867.933, 1520 865.891, 1520 864.865 C 1520 863.839, 1520.605 863, 1521.345 863 C 1523.554 863, 1526.278 859.237, 1526.393 856.028 L 1526.500 853.029 1528.166 853.555 C 1530.289 854.226, 1531.513 852.323, 1530.074 850.589 L 1528.975 849.265 1530.444 848.047 C 1531.252 847.376, 1532.322 847.081, 1532.823 847.390 C 1534.084 848.170, 1537.347 844.370, 1536.539 843.063 C 1535.693 841.695, 1534.684 841.716, 1533.266 843.134 M 513 934.413 C 513 935.155, 514.688 937.018, 516.750 938.553 C 518.813 940.087, 522.453 943.178, 524.840 945.422 C 542.262 961.793, 545.880 965, 546.928 965 C 547.420 965, 548.903 966.237, 550.223 967.750 C 552.829 970.733, 555.175 972.435, 558.874 974.025 C 560.179 974.586, 562.124 976.159, 563.196 977.522 C 564.268 978.885, 565.687 980, 566.350 980 C 567.013 980, 568.326 980.900, 569.268 982 C 570.210 983.100, 571.649 984, 572.467 984 C 573.285 984, 574.691 985.125, 575.592 986.500 L 577.230 989 579.565 989 C 580.850 989, 582.260 989.563, 582.700 990.250 C 583.140 990.938, 584.400 992.058, 585.500 992.740 C 586.600 993.421, 589.112 994.963, 591.083 996.166 C 593.053 997.368, 595.395 999.623, 596.286 1001.176 L 597.907 1004 599.881 1004 C 600.967 1004, 602.692 1005.064, 603.715 1006.365 C 604.739 1007.666, 606.571 1009.047, 607.788 1009.433 L 610 1010.135 610.158 1007.817 C 610.400 1004.285, 610.083 1001.704, 609.136 999.500 C 607.268 995.150, 605.632 988.583, 603.657 977.500 C 603.461 976.400, 603.043 974.825, 602.729 974 C 602.415 973.175, 601.612 969.350, 600.944 965.500 C 600.277 961.650, 599.116 957.285, 598.365 955.800 C 597.614 954.314, 597 952.207, 597 951.117 C 597 948.971, 597.060 948.997, 586 946.529 C 581.875 945.609, 576.250 944.237, 573.500 943.480 C 568.291 942.047, 559.488 940.708, 548 939.602 C 545.525 939.364, 541.925 938.653, 540 938.022 C 536.165 936.765, 528.285 935.336, 520.500 934.487 C 517.750 934.187, 514.938 933.744, 514.250 933.502 C 513.563 933.261, 513 933.670, 513 934.413 M 1173.500 936.500 C 1170.750 937.203, 1167.079 938.516, 1165.343 939.416 C 1161.350 941.487, 1154.844 947.807, 1153.384 951.034 C 1152.770 952.390, 1151.693 954.716, 1150.991 956.201 C 1149.473 959.413, 1149.292 969.415, 1150.719 971.225 C 1151.272 971.926, 1152.009 973.693, 1152.356 975.152 C 1152.704 976.610, 1154.195 979.645, 1155.669 981.897 L 1158.349 985.991 1162.925 988.215 C 1168.985 991.162, 1169.478 991.279, 1176.770 991.503 L 1183.039 991.696 1189.047 988.598 C 1192.351 986.894, 1196.745 983.849, 1198.810 981.831 L 1202.567 978.162 1204.236 972.940 L 1205.906 967.718 1205.512 959.904 C 1205.296 955.606, 1204.577 951.079, 1203.916 949.842 C 1201.094 944.571, 1190.305 937, 1185.614 937 C 1184.791 937, 1183.840 936.550, 1183.500 936 C 1182.718 934.735, 1179.838 934.879, 1173.500 936.500 M 863.500 943.927 C 859.261 944.865, 851 948.909, 851 950.047 C 851 950.571, 850.419 951, 849.708 951 C 848.998 951, 846.429 953.025, 844 955.500 C 841.571 957.975, 839.972 960, 840.447 960 C 840.922 960, 840.619 960.788, 839.776 961.750 C 837.390 964.471, 834.855 969.956, 835.501 971.001 C 835.821 971.519, 835.321 973.107, 834.389 974.530 L 832.694 977.116 834.597 984.781 L 836.500 992.446 840.076 996.973 C 844.971 1003.169, 849.631 1006.516, 855.989 1008.404 C 866.020 1011.383, 876.581 1010.122, 884.709 1004.974 C 889.688 1001.820, 897 994.520, 897 992.702 C 897 992.128, 897.700 990.883, 898.557 989.937 C 899.413 988.991, 900.253 987.156, 900.424 985.859 C 900.596 984.561, 901.048 982.764, 901.431 981.864 C 903.225 977.645, 901.492 966.258, 897.966 959.086 C 895.168 953.398, 890.105 948.668, 883.436 945.513 L 878.124 943 872.312 943.132 C 869.115 943.204, 865.150 943.562, 863.500 943.927 M 1062.778 997.556 C 1062.394 997.939, 1060.721 998.411, 1059.060 998.605 C 1054.965 999.081, 1049 1001.657, 1049 1002.949 C 1049 1003.527, 1049.675 1004, 1050.500 1004 C 1051.325 1004, 1051.996 1004.337, 1051.992 1004.750 C 1051.982 1005.686, 1047.107 1008, 1045.146 1008 L 1043.690 1008 1045.506 1005.994 C 1046.504 1004.890, 1047.034 1003.701, 1046.683 1003.350 C 1045.782 1002.449, 1036.199 1005.654, 1031.878 1008.301 C 1029.885 1009.521, 1025.461 1013.084, 1022.047 1016.217 L 1015.838 1021.915 1016.486 1023.957 L 1017.135 1026 1014.817 1026.038 L 1012.500 1026.076 1009.808 1029.970 C 1008.328 1032.111, 1006.814 1035.474, 1006.445 1037.443 C 1006.075 1039.411, 1005.391 1041.258, 1004.924 1041.547 C 1004.457 1041.835, 1004.581 1043.180, 1005.198 1044.536 L 1006.321 1047 1008.661 1047 C 1009.947 1047, 1011 1046.550, 1011 1046 C 1011 1045.450, 1011.574 1045, 1012.276 1045 L 1013.553 1045 1013.171 1049 C 1012.962 1051.200, 1012.439 1053, 1012.009 1053 C 1011.580 1053, 1009.940 1052.328, 1008.364 1051.506 C 1006.789 1050.685, 1004.765 1050.010, 1003.867 1050.006 C 1002.343 1050, 1000.927 1052.508, 1000.483 1056 C 1000.378 1056.825, 999.777 1058.767, 999.146 1060.315 C 997.671 1063.939, 997.679 1063.994, 999.750 1064.032 L 1001.500 1064.064 999.750 1065.392 L 998 1066.720 998 1069.885 L 998 1073.050 1000.622 1074.046 L 1003.243 1075.043 1004.505 1073.996 L 1005.766 1072.949 1006.380 1074.547 C 1007.842 1078.358, 1003.066 1081.666, 1000.217 1078.817 C 998.756 1077.356, 997.505 1078.390, 998.596 1080.156 C 999.034 1080.864, 999.272 1083.109, 999.126 1085.143 L 998.858 1088.842 1001.120 1089.171 L 1003.382 1089.500 1004.272 1092.954 L 1005.163 1096.408 1003.559 1097.580 L 1001.956 1098.753 1002.913 1101.126 C 1003.439 1102.432, 1004.971 1104.837, 1006.317 1106.471 L 1008.764 1109.441 1010.382 1108.098 L 1012 1106.755 1012 1107.878 C 1012 1108.495, 1012.810 1109, 1013.800 1109 C 1014.790 1109, 1016.123 1109.523, 1016.763 1110.163 L 1017.926 1111.326 1015.359 1112.658 C 1013.947 1113.390, 1012.389 1113.740, 1011.896 1113.436 C 1009.250 1111.800, 1013.546 1118.494, 1018.826 1124.232 L 1021.339 1126.963 1022.626 1125.896 C 1024.388 1124.433, 1026 1125.642, 1026 1128.426 L 1026 1130.734 1030.103 1133.450 L 1034.206 1136.165 1036.603 1135.563 L 1039 1134.962 1039 1137.181 L 1039 1139.400 1040.200 1138.200 C 1041.800 1136.600, 1043 1136.682, 1043 1138.391 C 1043 1140.065, 1049.920 1143, 1053.865 1143 C 1055.419 1143, 1057.460 1142.150, 1058.400 1141.110 L 1060.110 1139.221 1063.555 1140.278 C 1067.209 1141.400, 1068.176 1142.712, 1065.250 1142.579 C 1064.287 1142.536, 1063.386 1142.950, 1063.248 1143.500 L 1062.995 1144.500 1070.227 1144.628 L 1077.458 1144.756 1078.552 1143.260 L 1079.645 1141.765 1082.913 1143.455 L 1086.181 1145.145 1087.840 1144.434 C 1088.753 1144.043, 1090.917 1143.816, 1092.649 1143.929 C 1094.381 1144.043, 1096.095 1143.655, 1096.458 1143.068 C 1096.821 1142.481, 1098.329 1141.997, 1099.809 1141.994 C 1101.289 1141.990, 1103.789 1141.315, 1105.364 1140.494 C 1106.940 1139.672, 1108.789 1139, 1109.475 1139 C 1110.160 1139, 1112.379 1137.875, 1114.405 1136.500 C 1116.431 1135.125, 1118.721 1134, 1119.495 1134 C 1120.268 1134, 1121.260 1133.427, 1121.700 1132.726 C 1122.140 1132.025, 1123.850 1130.601, 1125.500 1129.561 C 1130.780 1126.233, 1137.143 1119.997, 1143.296 1112.118 C 1145.608 1109.158, 1147.768 1106.233, 1148.095 1105.618 C 1150.508 1101.080, 1151 1099.784, 1151 1097.964 C 1151 1096.829, 1151.701 1094.545, 1152.558 1092.887 L 1154.117 1089.873 1154.540 1074.187 L 1154.964 1058.500 1153.127 1051 C 1150.700 1041.093, 1146.713 1032.612, 1141.141 1025.508 C 1129.413 1010.555, 1116.290 1002.384, 1100.080 999.944 C 1095.911 999.317, 1092.050 998.468, 1091.500 998.058 C 1090.211 997.098, 1063.699 996.634, 1062.778 997.556 M 986.904 1217.395 C 986.682 1217.598, 979.300 1218.016, 970.500 1218.323 C 961.700 1218.631, 952.925 1219.139, 951 1219.452 C 949.075 1219.766, 945.700 1220.209, 943.500 1220.437 C 936.596 1221.153, 929.659 1222.960, 925.201 1225.202 L 920.902 1227.365 921.201 1229.909 L 921.500 1232.454 924 1233.791 L 926.500 1235.129 940 1234.506 C 947.425 1234.163, 958.675 1233.804, 965 1233.709 L 976.500 1233.536 976.529 1240.018 C 976.545 1243.583, 976.287 1247.348, 975.957 1248.385 C 975.627 1249.421, 976.099 1252.981, 977.006 1256.296 L 978.656 1262.322 981.380 1265.047 C 984.652 1268.318, 987.948 1269.178, 998.470 1269.502 L 1006.440 1269.747 1009.970 1267.503 C 1011.911 1266.269, 1014.270 1264.397, 1015.212 1263.343 C 1017.762 1260.488, 1020.207 1249.430, 1020.019 1241.596 L 1019.854 1234.693 1028.554 1235.307 C 1033.339 1235.644, 1037.438 1236.105, 1037.663 1236.330 C 1037.888 1236.555, 1038.023 1239.385, 1037.962 1242.620 C 1037.787 1251.935, 1037.893 1255.128, 1038.571 1260.999 L 1039.206 1266.497 1043.269 1270.249 C 1045.504 1272.312, 1048.187 1274, 1049.232 1274 C 1050.277 1274, 1051.976 1274.452, 1053.009 1275.005 L 1054.886 1276.009 1057.517 1274.810 L 1060.148 1273.611 1062.061 1274.806 C 1063.112 1275.463, 1065.343 1276, 1067.018 1276 L 1070.063 1276 1070.638 1274.500 C 1070.955 1273.675, 1072.035 1273, 1073.039 1273 C 1074.043 1273, 1075.706 1271.763, 1076.736 1270.250 C 1079.796 1265.755, 1082.300 1259.224, 1081.631 1257.481 C 1081.288 1256.587, 1081.472 1254.986, 1082.041 1253.924 C 1082.609 1252.862, 1083.096 1249.105, 1083.123 1245.576 L 1083.173 1239.159 1088.336 1239.500 C 1091.176 1239.688, 1093.725 1239.919, 1094 1240.015 C 1094.275 1240.111, 1096.750 1240.269, 1099.500 1240.366 C 1102.250 1240.463, 1104.950 1240.699, 1105.500 1240.890 C 1106.050 1241.081, 1109.425 1241.181, 1113 1241.112 L 1119.500 1240.987 1121.324 1237.784 L 1123.147 1234.581 1121.383 1233.290 C 1120.412 1232.581, 1118.894 1232, 1118.009 1232 C 1117.124 1232, 1115.973 1231.585, 1115.450 1231.077 C 1114.352 1230.010, 1105.664 1228.151, 1098.732 1227.499 C 1096.109 1227.252, 1093.184 1226.645, 1092.232 1226.149 C 1091.279 1225.653, 1087.350 1224.931, 1083.500 1224.544 C 1079.650 1224.157, 1074.700 1223.460, 1072.500 1222.995 C 1070.300 1222.530, 1060.850 1221.623, 1051.500 1220.981 C 1042.150 1220.338, 1032.250 1219.657, 1029.500 1219.467 C 1026.750 1219.277, 1017.750 1218.851, 1009.500 1218.520 C 1001.250 1218.190, 992.882 1217.719, 990.904 1217.473 C 988.926 1217.227, 987.126 1217.192, 986.904 1217.395 M 699.250 1338.019 C 698.013 1338.523, 697 1339.123, 697 1339.353 C 697 1340.528, 702.112 1342.894, 703.500 1342.361 L 705.106 1341.745 704.803 1339.633 C 704.459 1337.237, 702.541 1336.679, 699.250 1338.019 M 763 1340 C 763 1340.550, 763.450 1341, 764 1341 C 764.550 1341, 765 1341.723, 765 1342.607 L 765 1344.214 766.582 1343.607 C 767.452 1343.273, 768.352 1343, 768.582 1343 C 769.763 1343, 768.779 1340.129, 767.418 1339.607 C 765.040 1338.694, 763 1338.876, 763 1340 M 1057.706 1405.554 C 1055.639 1406.958, 1054.234 1408.569, 1054.583 1409.134 C 1054.931 1409.698, 1054.268 1410.824, 1053.108 1411.637 L 1051 1413.113 1051 1416.741 C 1051 1418.736, 1051.956 1422.343, 1053.124 1424.756 L 1055.248 1429.144 1057.874 1430.213 C 1063.510 1432.509, 1068.468 1432.625, 1071.431 1430.530 C 1075.409 1427.719, 1076.682 1426.484, 1077.837 1424.316 C 1079.444 1421.297, 1079.292 1415.466, 1077.517 1412.033 C 1075.616 1408.358, 1067.707 1403, 1064.182 1403 C 1062.687 1403, 1059.773 1404.149, 1057.706 1405.554" stroke="none" fill="url(#inkTexture)" fill-rule="evenodd"/>
    <path d="M 1163.404 806.693 C 1155.991 808.496, 1149 811.129, 1149 812.119 C 1149 812.603, 1148.208 813, 1147.241 813 C 1146.273 813, 1144.888 813.949, 1144.164 815.110 L 1142.846 817.219 1140.026 816.655 L 1137.206 816.091 1129.353 820.057 C 1119.683 824.941, 1116.732 827.068, 1106.118 836.808 C 1097.773 844.467, 1091.803 851.609, 1088.654 857.700 C 1086.829 861.231, 1086.413 868, 1088.021 868 C 1088.583 868, 1089.555 869.125, 1090.182 870.500 C 1090.808 871.875, 1091.586 872.996, 1091.911 872.990 C 1092.235 872.985, 1096.645 869.413, 1101.711 865.052 C 1110.270 857.685, 1125.271 847, 1127.055 847 C 1127.483 847, 1127.983 846.618, 1128.167 846.152 C 1128.350 845.685, 1131.520 843.871, 1135.211 842.119 C 1138.902 840.368, 1142.168 838.538, 1142.468 838.052 C 1143.502 836.379, 1158.761 832.136, 1170 830.396 C 1175.572 829.534, 1189.147 829.225, 1190.500 829.929 C 1191.050 830.215, 1192.625 830.579, 1194 830.736 C 1200.553 831.489, 1210.724 834.559, 1216.792 837.615 C 1220.481 839.473, 1224.110 840.995, 1224.856 840.997 C 1226.027 841, 1227.854 842.242, 1233.708 847.015 C 1234.372 847.557, 1235.206 848, 1235.561 848 C 1236.536 848, 1250.984 860.240, 1255.202 864.639 C 1257.237 866.763, 1261.512 871.051, 1264.702 874.168 L 1270.500 879.836 1273.250 879.302 L 1276 878.767 1276 876.942 C 1276 875.939, 1276.450 874.840, 1277 874.500 C 1278.896 873.328, 1277.988 869.093, 1274.065 860.809 C 1270.136 852.515, 1267.826 849.213, 1260.750 841.780 C 1258.688 839.614, 1256.984 837.540, 1256.963 837.171 C 1256.943 836.802, 1254.018 834.256, 1250.463 831.512 C 1246.909 828.769, 1244 826.182, 1244 825.762 C 1244 825.343, 1243.403 825, 1242.674 825 C 1241.945 825, 1240.258 823.827, 1238.924 822.394 C 1237.591 820.961, 1235.600 819.379, 1234.500 818.879 C 1233.400 818.379, 1231.150 817.084, 1229.500 816 C 1225.599 813.438, 1222.215 811.989, 1218.500 811.290 C 1216.850 810.979, 1214.825 810.176, 1214 809.504 C 1212.187 808.027, 1208.855 807.062, 1203.500 806.461 C 1201.300 806.215, 1197.797 805.777, 1195.716 805.489 C 1193.635 805.201, 1191.084 805.420, 1190.047 805.975 L 1188.161 806.984 1187.810 805.930 L 1187.458 804.875 1184.645 805.945 C 1183.098 806.533, 1181.307 806.674, 1180.666 806.257 C 1178.888 805.102, 1168.907 805.354, 1163.404 806.693 M 1533.266 843.134 C 1532.642 843.758, 1530.520 844.396, 1528.551 844.552 C 1525.052 844.830, 1520.856 846.460, 1510.275 851.654 L 1505.049 854.219 1507.275 856.089 L 1509.500 857.959 1508.048 858.914 C 1507.249 859.439, 1506.237 859.646, 1505.798 859.375 C 1505.359 859.104, 1505 859.306, 1505 859.824 C 1505 860.343, 1503.875 860.982, 1502.500 861.245 C 1501.125 861.508, 1500 861.371, 1500 860.941 C 1500 860.511, 1498.688 859.871, 1497.084 859.518 L 1494.168 858.878 1492.084 860.180 C 1489.752 861.636, 1489.355 863.594, 1491.250 864.297 L 1492.500 864.760 1490.718 866.626 L 1488.936 868.492 1489.218 865.999 L 1489.500 863.506 1487.500 863.223 C 1486.400 863.067, 1483.173 864.415, 1480.329 866.220 C 1477.484 868.024, 1473.764 870.271, 1472.061 871.213 C 1470.358 872.156, 1468.683 873.664, 1468.337 874.564 L 1467.709 876.202 1469.076 877.047 L 1470.444 877.892 1468.472 878.600 C 1467.387 878.990, 1466.168 879.487, 1465.761 879.706 C 1465.355 879.925, 1465.291 879.406, 1465.618 878.552 C 1465.946 877.698, 1465.912 877, 1465.543 877 C 1463.768 877, 1453.794 882.206, 1451.856 884.144 C 1450.649 885.351, 1447.600 887.425, 1445.081 888.753 C 1442.561 890.081, 1439.350 892.255, 1437.945 893.584 C 1436.540 894.913, 1434.628 896, 1433.695 896 C 1432.763 896, 1431.952 896.788, 1431.894 897.750 C 1431.835 898.712, 1431.723 900.349, 1431.644 901.386 C 1431.501 903.262, 1430.186 904.327, 1426.637 905.440 L 1424.775 906.024 1426.010 907.512 L 1427.245 909 1425.872 910.654 C 1425.118 911.563, 1424.583 912.576, 1424.684 912.904 C 1424.786 913.232, 1424.223 913.368, 1423.434 913.206 C 1421.749 912.861, 1421.506 914.577, 1423.101 915.562 L 1424.201 916.243 1423.609 919.203 C 1423.284 920.831, 1423.483 923.034, 1424.052 924.097 L 1425.086 926.030 1423.662 926.576 L 1422.238 927.123 1423.070 930.810 L 1423.902 934.498 1422.951 935.449 C 1421.865 936.535, 1421.691 941.031, 1422.639 943.502 L 1423.278 945.168 1424.085 943.863 C 1424.528 943.145, 1425.253 942.919, 1425.694 943.361 C 1426.136 943.802, 1425.819 944.689, 1424.991 945.332 L 1423.485 946.500 1423.593 950.500 L 1423.701 954.500 1425.908 954.827 L 1428.115 955.154 1427.808 958.327 L 1427.500 961.500 1426.250 961.250 C 1424.527 960.905, 1424.681 962.490, 1426.519 964.016 L 1428.038 965.276 1429.910 963.581 L 1431.783 961.886 1431.271 959.928 L 1430.759 957.970 1432.295 958.560 L 1433.831 959.149 1438.665 953.937 C 1441.324 951.071, 1444.963 947.354, 1446.750 945.679 C 1448.537 944.003, 1450 942.088, 1450 941.423 C 1450 940.758, 1450.675 939.955, 1451.500 939.638 C 1452.325 939.322, 1453 938.149, 1453 937.031 L 1453 935 1455.094 935 L 1457.187 935 1457.677 933.126 C 1457.947 932.096, 1459.480 930.282, 1461.084 929.096 L 1464 926.940 1464 924.529 C 1464 921.796, 1465.531 920.347, 1466.415 922.244 L 1467 923.500 1467.583 922.250 C 1467.904 921.563, 1468.749 921, 1469.461 921 C 1471.422 921, 1473.250 918.304, 1473.250 915.413 L 1473.250 912.832 1475.224 913.348 L 1477.198 913.864 1476.721 912.043 C 1476.039 909.431, 1477.302 907.901, 1480.422 907.558 L 1483.137 907.260 1486.028 903.880 C 1487.618 902.021, 1488.937 899.712, 1488.959 898.750 C 1488.982 897.788, 1489.450 897, 1490 897 C 1490.550 897, 1491 896.277, 1491 895.393 L 1491 893.786 1492.520 894.369 C 1493.356 894.690, 1495.137 893.998, 1496.478 892.832 L 1498.916 890.712 1497.923 888.856 C 1496.903 886.950, 1497.261 886.647, 1500.187 886.937 C 1502.050 887.122, 1504.443 883.526, 1503.487 881.979 C 1503.154 881.441, 1503.964 881, 1505.286 881 C 1506.608 881, 1508.527 880.075, 1509.551 878.944 L 1511.411 876.888 1510.262 875.048 L 1509.113 873.208 1511.038 871.466 L 1512.962 869.724 1514.379 870.900 L 1515.796 872.075 1517.898 869.403 C 1519.054 867.933, 1520 865.891, 1520 864.865 C 1520 863.839, 1520.605 863, 1521.345 863 C 1523.554 863, 1526.278 859.237, 1526.393 856.028 L 1526.500 853.029 1528.166 853.555 C 1530.289 854.226, 1531.513 852.323, 1530.074 850.589 L 1528.975 849.265 1530.444 848.047 C 1531.252 847.376, 1532.322 847.081, 1532.823 847.390 C 1534.084 848.170, 1537.347 844.370, 1536.539 843.063 C 1535.693 841.695, 1534.684 841.716, 1533.266 843.134 M 513 934.413 C 513 935.155, 514.688 937.018, 516.750 938.553 C 518.813 940.087, 522.453 943.178, 524.840 945.422 C 542.262 961.793, 545.880 965, 546.928 965 C 547.420 965, 548.903 966.237, 550.223 967.750 C 552.829 970.733, 555.175 972.435, 558.874 974.025 C 560.179 974.586, 562.124 976.159, 563.196 977.522 C 564.268 978.885, 565.687 980, 566.350 980 C 567.013 980, 568.326 980.900, 569.268 982 C 570.210 983.100, 571.649 984, 572.467 984 C 573.285 984, 574.691 985.125, 575.592 986.500 L 577.230 989 579.565 989 C 580.850 989, 582.260 989.563, 582.700 990.250 C 583.140 990.938, 584.400 992.058, 585.500 992.740 C 586.600 993.421, 589.112 994.963, 591.083 996.166 C 593.053 997.368, 595.395 999.623, 596.286 1001.176 L 597.907 1004 599.881 1004 C 600.967 1004, 602.692 1005.064, 603.715 1006.365 C 604.739 1007.666, 606.571 1009.047, 607.788 1009.433 L 610 1010.135 610.158 1007.817 C 610.400 1004.285, 610.083 1001.704, 609.136 999.500 C 607.268 995.150, 605.632 988.583, 603.657 977.500 C 603.461 976.400, 603.043 974.825, 602.729 974 C 602.415 973.175, 601.612 969.350, 600.944 965.500 C 600.277 961.650, 599.116 957.285, 598.365 955.800 C 597.614 954.314, 597 952.207, 597 951.117 C 597 948.971, 597.060 948.997, 586 946.529 C 581.875 945.609, 576.250 944.237, 573.500 943.480 C 568.291 942.047, 559.488 940.708, 548 939.602 C 545.525 939.364, 541.925 938.653, 540 938.022 C 536.165 936.765, 528.285 935.336, 520.500 934.487 C 517.750 934.187, 514.938 933.744, 514.250 933.502 C 513.563 933.261, 513 933.670, 513 934.413 M 1173.500 936.500 C 1170.750 937.203, 1167.079 938.516, 1165.343 939.416 C 1161.350 941.487, 1154.844 947.807, 1153.384 951.034 C 1152.770 952.390, 1151.693 954.716, 1150.991 956.201 C 1149.473 959.413, 1149.292 969.415, 1150.719 971.225 C 1151.272 971.926, 1152.009 973.693, 1152.356 975.152 C 1152.704 976.610, 1154.195 979.645, 1155.669 981.897 L 1158.349 985.991 1162.925 988.215 C 1168.985 991.162, 1169.478 991.279, 1176.770 991.503 L 1183.039 991.696 1189.047 988.598 C 1192.351 986.894, 1196.745 983.849, 1198.810 981.831 L 1202.567 978.162 1204.236 972.940 L 1205.906 967.718 1205.512 959.904 C 1205.296 955.606, 1204.577 951.079, 1203.916 949.842 C 1201.094 944.571, 1190.305 937, 1185.614 937 C 1184.791 937, 1183.840 936.550, 1183.500 936 C 1182.718 934.735, 1179.838 934.879, 1173.500 936.500 M 863.500 943.927 C 859.261 944.865, 851 948.909, 851 950.047 C 851 950.571, 850.419 951, 849.708 951 C 848.998 951, 846.429 953.025, 844 955.500 C 841.571 957.975, 839.972 960, 840.447 960 C 840.922 960, 840.619 960.788, 839.776 961.750 C 837.390 964.471, 834.855 969.956, 835.501 971.001 C 835.821 971.519, 835.321 973.107, 834.389 974.530 L 832.694 977.116 834.597 984.781 L 836.500 992.446 840.076 996.973 C 844.971 1003.169, 849.631 1006.516, 855.989 1008.404 C 866.020 1011.383, 876.581 1010.122, 884.709 1004.974 C 889.688 1001.820, 897 994.520, 897 992.702 C 897 992.128, 897.700 990.883, 898.557 989.937 C 899.413 988.991, 900.253 987.156, 900.424 985.859 C 900.596 984.561, 901.048 982.764, 901.431 981.864 C 903.225 977.645, 901.492 966.258, 897.966 959.086 C 895.168 953.398, 890.105 948.668, 883.436 945.513 L 878.124 943 872.312 943.132 C 869.115 943.204, 865.150 943.562, 863.500 943.927 M 1062.778 997.556 C 1062.394 997.939, 1060.721 998.411, 1059.060 998.605 C 1054.965 999.081, 1049 1001.657, 1049 1002.949 C 1049 1003.527, 1049.675 1004, 1050.500 1004 C 1051.325 1004, 1051.996 1004.337, 1051.992 1004.750 C 1051.982 1005.686, 1047.107 1008, 1045.146 1008 L 1043.690 1008 1045.506 1005.994 C 1046.504 1004.890, 1047.034 1003.701, 1046.683 1003.350 C 1045.782 1002.449, 1036.199 1005.654, 1031.878 1008.301 C 1029.885 1009.521, 1025.461 1013.084, 1022.047 1016.217 L 1015.838 1021.915 1016.486 1023.957 L 1017.135 1026 1014.817 1026.038 L 1012.500 1026.076 1009.808 1029.970 C 1008.328 1032.111, 1006.814 1035.474, 1006.445 1037.443 C 1006.075 1039.411, 1005.391 1041.258, 1004.924 1041.547 C 1004.457 1041.835, 1004.581 1043.180, 1005.198 1044.536 L 1006.321 1047 1008.661 1047 C 1009.947 1047, 1011 1046.550, 1011 1046 C 1011 1045.450, 1011.574 1045, 1012.276 1045 L 1013.553 1045 1013.171 1049 C 1012.962 1051.200, 1012.439 1053, 1012.009 1053 C 1011.580 1053, 1009.940 1052.328, 1008.364 1051.506 C 1006.789 1050.685, 1004.765 1050.010, 1003.867 1050.006 C 1002.343 1050, 1000.927 1052.508, 1000.483 1056 C 1000.378 1056.825, 999.777 1058.767, 999.146 1060.315 C 997.671 1063.939, 997.679 1063.994, 999.750 1064.032 L 1001.500 1064.064 999.750 1065.392 L 998 1066.720 998 1069.885 L 998 1073.050 1000.622 1074.046 L 1003.243 1075.043 1004.505 1073.996 L 1005.766 1072.949 1006.380 1074.547 C 1007.842 1078.358, 1003.066 1081.666, 1000.217 1078.817 C 998.756 1077.356, 997.505 1078.390, 998.596 1080.156 C 999.034 1080.864, 999.272 1083.109, 999.126 1085.143 L 998.858 1088.842 1001.120 1089.171 L 1003.382 1089.500 1004.272 1092.954 L 1005.163 1096.408 1003.559 1097.580 L 1001.956 1098.753 1002.913 1101.126 C 1003.439 1102.432, 1004.971 1104.837, 1006.317 1106.471 L 1008.764 1109.441 1010.382 1108.098 L 1012 1106.755 1012 1107.878 C 1012 1108.495, 1012.810 1109, 1013.800 1109 C 1014.790 1109, 1016.123 1109.523, 1016.763 1110.163 L 1017.926 1111.326 1015.359 1112.658 C 1013.947 1113.390, 1012.389 1113.740, 1011.896 1113.436 C 1009.250 1111.800, 1013.546 1118.494, 1018.826 1124.232 L 1021.339 1126.963 1022.626 1125.896 C 1024.388 1124.433, 1026 1125.642, 1026 1128.426 L 1026 1130.734 1030.103 1133.450 L 1034.206 1136.165 1036.603 1135.563 L 1039 1134.962 1039 1137.181 L 1039 1139.400 1040.200 1138.200 C 1041.800 1136.600, 1043 1136.682, 1043 1138.391 C 1043 1140.065, 1049.920 1143, 1053.865 1143 C 1055.419 1143, 1057.460 1142.150, 1058.400 1141.110 L 1060.110 1139.221 1063.555 1140.278 C 1067.209 1141.400, 1068.176 1142.712, 1065.250 1142.579 C 1064.287 1142.536, 1063.386 1142.950, 1063.248 1143.500 L 1062.995 1144.500 1070.227 1144.628 L 1077.458 1144.756 1078.552 1143.260 L 1079.645 1141.765 1082.913 1143.455 L 1086.181 1145.145 1087.840 1144.434 C 1088.753 1144.043, 1090.917 1143.816, 1092.649 1143.929 C 1094.381 1144.043, 1096.095 1143.655, 1096.458 1143.068 C 1096.821 1142.481, 1098.329 1141.997, 1099.809 1141.994 C 1101.289 1141.990, 1103.789 1141.315, 1105.364 1140.494 C 1106.940 1139.672, 1108.789 1139, 1109.475 1139 C 1110.160 1139, 1112.379 1137.875, 1114.405 1136.500 C 1116.431 1135.125, 1118.721 1134, 1119.495 1134 C 1120.268 1134, 1121.260 1133.427, 1121.700 1132.726 C 1122.140 1132.025, 1123.850 1130.601, 1125.500 1129.561 C 1130.780 1126.233, 1137.143 1119.997, 1143.296 1112.118 C 1145.608 1109.158, 1147.768 1106.233, 1148.095 1105.618 C 1150.508 1101.080, 1151 1099.784, 1151 1097.964 C 1151 1096.829, 1151.701 1094.545, 1152.558 1092.887 L 1154.117 1089.873 1154.540 1074.187 L 1154.964 1058.500 1153.127 1051 C 1150.700 1041.093, 1146.713 1032.612, 1141.141 1025.508 C 1129.413 1010.555, 1116.290 1002.384, 1100.080 999.944 C 1095.911 999.317, 1092.050 998.468, 1091.500 998.058 C 1090.211 997.098, 1063.699 996.634, 1062.778 997.556 M 986.904 1217.395 C 986.682 1217.598, 979.300 1218.016, 970.500 1218.323 C 961.700 1218.631, 952.925 1219.139, 951 1219.452 C 949.075 1219.766, 945.700 1220.209, 943.500 1220.437 C 936.596 1221.153, 929.659 1222.960, 925.201 1225.202 L 920.902 1227.365 921.201 1229.909 L 921.500 1232.454 924 1233.791 L 926.500 1235.129 940 1234.506 C 947.425 1234.163, 958.675 1233.804, 965 1233.709 L 976.500 1233.536 976.529 1240.018 C 976.545 1243.583, 976.287 1247.348, 975.957 1248.385 C 975.627 1249.421, 976.099 1252.981, 977.006 1256.296 L 978.656 1262.322 981.380 1265.047 C 984.652 1268.318, 987.948 1269.178, 998.470 1269.502 L 1006.440 1269.747 1009.970 1267.503 C 1011.911 1266.269, 1014.270 1264.397, 1015.212 1263.343 C 1017.762 1260.488, 1020.207 1249.430, 1020.019 1241.596 L 1019.854 1234.693 1028.554 1235.307 C 1033.339 1235.644, 1037.438 1236.105, 1037.663 1236.330 C 1037.888 1236.555, 1038.023 1239.385, 1037.962 1242.620 C 1037.787 1251.935, 1037.893 1255.128, 1038.571 1260.999 L 1039.206 1266.497 1043.269 1270.249 C 1045.504 1272.312, 1048.187 1274, 1049.232 1274 C 1050.277 1274, 1051.976 1274.452, 1053.009 1275.005 L 1054.886 1276.009 1057.517 1274.810 L 1060.148 1273.611 1062.061 1274.806 C 1063.112 1275.463, 1065.343 1276, 1067.018 1276 L 1070.063 1276 1070.638 1274.500 C 1070.955 1273.675, 1072.035 1273, 1073.039 1273 C 1074.043 1273, 1075.706 1271.763, 1076.736 1270.250 C 1079.796 1265.755, 1082.300 1259.224, 1081.631 1257.481 C 1081.288 1256.587, 1081.472 1254.986, 1082.041 1253.924 C 1082.609 1252.862, 1083.096 1249.105, 1083.123 1245.576 L 1083.173 1239.159 1088.336 1239.500 C 1091.176 1239.688, 1093.725 1239.919, 1094 1240.015 C 1094.275 1240.111, 1096.750 1240.269, 1099.500 1240.366 C 1102.250 1240.463, 1104.950 1240.699, 1105.500 1240.890 C 1106.050 1241.081, 1109.425 1241.181, 1113 1241.112 L 1119.500 1240.987 1121.324 1237.784 L 1123.147 1234.581 1121.383 1233.290 C 1120.412 1232.581, 1118.894 1232, 1118.009 1232 C 1117.124 1232, 1115.973 1231.585, 1115.450 1231.077 C 1114.352 1230.010, 1105.664 1228.151, 1098.732 1227.499 C 1096.109 1227.252, 1093.184 1226.645, 1092.232 1226.149 C 1091.279 1225.653, 1087.350 1224.931, 1083.500 1224.544 C 1079.650 1224.157, 1074.700 1223.460, 1072.500 1222.995 C 1070.300 1222.530, 1060.850 1221.623, 1051.500 1220.981 C 1042.150 1220.338, 1032.250 1219.657, 1029.500 1219.467 C 1026.750 1219.277, 1017.750 1218.851, 1009.500 1218.520 C 1001.250 1218.190, 992.882 1217.719, 990.904 1217.473 C 988.926 1217.227, 987.126 1217.192, 986.904 1217.395 M 699.250 1338.019 C 698.013 1338.523, 697 1339.123, 697 1339.353 C 697 1340.528, 702.112 1342.894, 703.500 1342.361 L 705.106 1341.745 704.803 1339.633 C 704.459 1337.237, 702.541 1336.679, 699.250 1338.019 M 763 1340 C 763 1340.550, 763.450 1341, 764 1341 C 764.550 1341, 765 1341.723, 765 1342.607 L 765 1344.214 766.582 1343.607 C 767.452 1343.273, 768.352 1343, 768.582 1343 C 769.763 1343, 768.779 1340.129, 767.418 1339.607 C 765.040 1338.694, 763 1338.876, 763 1340" stroke="none" fill="url(#creamTexture)" fill-rule="evenodd"/>
  </g>
</svg>
